<svg xmlns="http://www.w3.org/2000/svg" width="300" height="300"><path d="M2,-55L51,-50L95,-51Z" fill="#976d31" stroke="#976d31" stroke-width="1.51"/><path d="M2,-55L95,-51L203,-53Z" fill="#a7865a" stroke="#a7865a" stroke-width="1.51"/><path d="M95,-51L140,-46L203,-53Z" fill="#ae9075" stroke="#ae9075" stroke-width="1.51"/><path d="M203,-53L239,-45L313,-44Z" fill="#737658" stroke="#737658" stroke-width="1.51"/><path d="M308,348L263,352L333,346Z" fill="#0c5f56" stroke="#0c5f56" stroke-width="1.51"/><path d="M332,308L333,346L340,273Z" fill="#086259" stroke="#086259" stroke-width="1.51"/><path d="M333,-42L336,-6L346,19Z" fill="#605731" stroke="#605731" stroke-width="1.51"/><path d="M319,240L340,273L350,232Z" fill="#39857b" stroke="#39857b" stroke-width="1.51"/><path d="M340,273L333,346L350,232Z" fill="#186e64" stroke="#186e64" stroke-width="1.51"/><path d="M310,213L350,232L350,202Z" fill="#56948a" stroke="#56948a" stroke-width="1.51"/><path d="M336,134L338,177L350,202Z" fill="#759c94" stroke="#759c94" stroke-width="1.51"/><path d="M346,19L319,16L355,50Z" fill="#736d40" stroke="#736d40" stroke-width="1.51"/><path d="M319,16L304,68L355,50Z" fill="#7c8057" stroke="#7c8057" stroke-width="1.51"/><path d="M304,68L319,85L355,50Z" fill="#80906b" stroke="#80906b" stroke-width="1.51"/><path d="M319,85L335,107L355,50Z" fill="#808f6e" stroke="#808f6e" stroke-width="1.51"/><path d="M333,-42L346,19L355,50Z" fill="#685f34" stroke="#685f34" stroke-width="1.51"/><path d="M336,134L350,202L355,50Z" fill="#809889" stroke="#809889" stroke-width="1.51"/><path d="M335,107L336,134L355,50Z" fill="#809477" stroke="#809477" stroke-width="1.51"/><path d="M350,202L350,232L355,50Z" fill="#77978f" stroke="#77978f" stroke-width="1.51"/><path d="M336,134L309,143L338,177Z" fill="#84a6a0" stroke="#84a6a0" stroke-width="1.51"/><path d="M310,213L319,240L350,232Z" fill="#4d958b" stroke="#4d958b" stroke-width="1.51"/><path d="M338,177L310,213L350,202Z" fill="#679c93" stroke="#679c93" stroke-width="1.51"/><path d="M309,143L304,167L338,177Z" fill="#81aba4" stroke="#81aba4" stroke-width="1.51"/><path d="M320,307L332,308L340,273Z" fill="#126c63" stroke="#126c63" stroke-width="1.51"/><path d="M336,-6L319,16L346,19Z" fill="#6c653b" stroke="#6c653b" stroke-width="1.51"/><path d="M332,308L320,307L333,346Z" fill="#015f56" stroke="#015f56" stroke-width="1.51"/><path d="M320,307L308,348L333,346Z" fill="#015d53" stroke="#015d53" stroke-width="1.51"/><path d="M333,-42L305,-20L336,-6Z" fill="#5e5834" stroke="#5e5834" stroke-width="1.51"/><path d="M304,167L310,213L338,177Z" fill="#73a8a0" stroke="#73a8a0" stroke-width="1.51"/><path d="M305,278L320,307L340,273Z" fill="#19766e" stroke="#19766e" stroke-width="1.51"/><path d="M319,240L305,278L340,273Z" fill="#2d847b" stroke="#2d847b" stroke-width="1.51"/><path d="M313,-44L305,-20L333,-42Z" fill="#585737" stroke="#585737" stroke-width="1.51"/><path d="M335,107L309,143L336,134Z" fill="#86a395" stroke="#86a395" stroke-width="1.51"/><path d="M305,-20L319,16L336,-6Z" fill="#6b643d" stroke="#6b643d" stroke-width="1.51"/><path d="M319,85L309,143L335,107Z" fill="#89a48f" stroke="#89a48f" stroke-width="1.51"/><path d="M239,-45L280,-31L313,-44Z" fill="#676a4b" stroke="#676a4b" stroke-width="1.51"/><path d="M279,134L309,143L319,85Z" fill="#91b1a0" stroke="#91b1a0" stroke-width="1.51"/><path d="M283,55L304,68L319,16Z" fill="#878e66" stroke="#878e66" stroke-width="1.51"/><path d="M69,350L-19,351L96,355Z" fill="#73754b" stroke="#73754b" stroke-width="1.51"/><path d="M304,167L284,209L310,213Z" fill="#74b0a8" stroke="#74b0a8" stroke-width="1.51"/><path d="M304,68L263,108L319,85Z" fill="#92aa8c" stroke="#92aa8c" stroke-width="1.51"/><path d="M263,108L279,134L319,85Z" fill="#99b9a2" stroke="#99b9a2" stroke-width="1.51"/><path d="M279,2L283,55L319,16Z" fill="#868457" stroke="#868457" stroke-width="1.51"/><path d="M305,-20L279,2L319,16Z" fill="#757048" stroke="#757048" stroke-width="1.51"/><path d="M310,213L273,244L319,240Z" fill="#53a399" stroke="#53a399" stroke-width="1.51"/><path d="M284,262L305,278L319,240Z" fill="#389188" stroke="#389188" stroke-width="1.51"/><path d="M262,311L308,348L320,307Z" fill="#127067" stroke="#127067" stroke-width="1.51"/><path d="M305,278L262,311L320,307Z" fill="#1f7e76" stroke="#1f7e76" stroke-width="1.51"/><path d="M273,244L284,262L319,240Z" fill="#489f95" stroke="#489f95" stroke-width="1.51"/><path d="M262,311L263,352L308,348Z" fill="#1c736a" stroke="#1c736a" stroke-width="1.51"/><path d="M284,209L273,244L310,213Z" fill="#62ada4" stroke="#62ada4" stroke-width="1.51"/><path d="M280,-31L305,-20L313,-44Z" fill="#636241" stroke="#636241" stroke-width="1.51"/><path d="M279,2L259,26L283,55Z" fill="#929265" stroke="#929265" stroke-width="1.51"/><path d="M262,174L284,209L304,167Z" fill="#85bcb6" stroke="#85bcb6" stroke-width="1.51"/><path d="M279,134L304,167L309,143Z" fill="#91b8b2" stroke="#91b8b2" stroke-width="1.51"/><path d="M283,55L263,108L304,68Z" fill="#96ad8b" stroke="#96ad8b" stroke-width="1.51"/><path d="M279,134L262,174L304,167Z" fill="#94c1bc" stroke="#94c1bc" stroke-width="1.51"/><path d="M284,262L262,311L305,278Z" fill="#2d8e86" stroke="#2d8e86" stroke-width="1.51"/><path d="M280,-31L279,2L305,-20Z" fill="#736f4a" stroke="#736f4a" stroke-width="1.51"/><path d="M250,67L247,99L263,108Z" fill="#adc7a9" stroke="#adc7a9" stroke-width="1.51"/><path d="M226,-17L279,2L280,-31Z" fill="#847f59" stroke="#847f59" stroke-width="1.51"/><path d="M250,67L263,108L283,55Z" fill="#a1b896" stroke="#a1b896" stroke-width="1.51"/><path d="M259,26L250,67L283,55Z" fill="#9da87f" stroke="#9da87f" stroke-width="1.51"/><path d="M225,201L273,244L284,209Z" fill="#78c1b8" stroke="#78c1b8" stroke-width="1.51"/><path d="M262,174L225,201L284,209Z" fill="#90cbc4" stroke="#90cbc4" stroke-width="1.51"/><path d="M273,244L242,276L284,262Z" fill="#4da69d" stroke="#4da69d" stroke-width="1.51"/><path d="M242,276L262,311L284,262Z" fill="#3f9b93" stroke="#3f9b93" stroke-width="1.51"/><path d="M225,201L226,241L273,244Z" fill="#7fcabf" stroke="#7fcabf" stroke-width="1.51"/><path d="M226,120L238,176L262,174Z" fill="#b3dbd4" stroke="#b3dbd4" stroke-width="1.51"/><path d="M242,276L244,305L262,311Z" fill="#459b92" stroke="#459b92" stroke-width="1.51"/><path d="M226,120L262,174L279,134Z" fill="#acd2c9" stroke="#acd2c9" stroke-width="1.51"/><path d="M239,-45L226,-17L280,-31Z" fill="#827f5c" stroke="#827f5c" stroke-width="1.51"/><path d="M238,176L225,201L262,174Z" fill="#a3d8d0" stroke="#a3d8d0" stroke-width="1.51"/><path d="M263,108L226,120L279,134Z" fill="#adcebc" stroke="#adcebc" stroke-width="1.51"/><path d="M226,-17L259,26L279,2Z" fill="#938e64" stroke="#938e64" stroke-width="1.51"/><path d="M226,-17L226,20L259,26Z" fill="#a49d70" stroke="#a49d70" stroke-width="1.51"/><path d="M262,311L237,354L263,352Z" fill="#338076" stroke="#338076" stroke-width="1.51"/><path d="M226,241L242,276L273,244Z" fill="#65b7ad" stroke="#65b7ad" stroke-width="1.51"/><path d="M128,351L96,355L163,355Z" fill="#7e9485" stroke="#7e9485" stroke-width="1.51"/><path d="M226,20L250,67L259,26Z" fill="#a9ab7f" stroke="#a9ab7f" stroke-width="1.51"/><path d="M244,305L237,354L262,311Z" fill="#3c8c83" stroke="#3c8c83" stroke-width="1.51"/><path d="M247,99L226,120L263,108Z" fill="#b6d3bc" stroke="#b6d3bc" stroke-width="1.51"/><path d="M201,338L163,355L237,354Z" fill="#609288" stroke="#609288" stroke-width="1.51"/><path d="M201,338L237,354L244,305Z" fill="#4d9288" stroke="#4d9288" stroke-width="1.51"/><path d="M200,312L201,338L244,305Z" fill="#5b9e95" stroke="#5b9e95" stroke-width="1.51"/><path d="M212,104L247,99L250,67Z" fill="#bad1b2" stroke="#bad1b2" stroke-width="1.51"/><path d="M205,56L212,104L250,67Z" fill="#c3d0ac" stroke="#c3d0ac" stroke-width="1.51"/><path d="M226,20L205,56L250,67Z" fill="#b9bc91" stroke="#b9bc91" stroke-width="1.51"/><path d="M226,120L200,124L238,176Z" fill="#c8e4da" stroke="#c8e4da" stroke-width="1.51"/><path d="M226,241L205,266L242,276Z" fill="#72bfb5" stroke="#72bfb5" stroke-width="1.51"/><path d="M242,276L200,312L244,305Z" fill="#58a69d" stroke="#58a69d" stroke-width="1.51"/><path d="M212,104L226,120L247,99Z" fill="#c4ddc4" stroke="#c4ddc4" stroke-width="1.51"/><path d="M225,201L212,205L226,241Z" fill="#9cd8ce" stroke="#9cd8ce" stroke-width="1.51"/><path d="M200,124L191,179L238,176Z" fill="#cbe9e3" stroke="#cbe9e3" stroke-width="1.51"/><path d="M205,266L200,312L242,276Z" fill="#6ab3aa" stroke="#6ab3aa" stroke-width="1.51"/><path d="M203,-53L226,-17L239,-45Z" fill="#8f8867" stroke="#8f8867" stroke-width="1.51"/><path d="M226,-17L202,-9L226,20Z" fill="#ab9d73" stroke="#ab9d73" stroke-width="1.51"/><path d="M191,179L225,201L238,176Z" fill="#b5e2db" stroke="#b5e2db" stroke-width="1.51"/><path d="M178,136L191,179L200,124Z" fill="#e0f0eb" stroke="#e0f0eb" stroke-width="1.51"/><path d="M191,179L212,205L225,201Z" fill="#b7e3dc" stroke="#b7e3dc" stroke-width="1.51"/><path d="M212,104L200,124L226,120Z" fill="#d0e3d0" stroke="#d0e3d0" stroke-width="1.51"/><path d="M203,-53L202,-9L226,-17Z" fill="#a0916e" stroke="#a0916e" stroke-width="1.51"/><path d="M191,16L205,56L226,20Z" fill="#c4b589" stroke="#c4b589" stroke-width="1.51"/><path d="M202,-9L191,16L226,20Z" fill="#baa77d" stroke="#baa77d" stroke-width="1.51"/><path d="M212,205L197,248L226,241Z" fill="#96d6cb" stroke="#96d6cb" stroke-width="1.51"/><path d="M197,248L205,266L226,241Z" fill="#88cac1" stroke="#88cac1" stroke-width="1.51"/><path d="M140,-46L177,-41L203,-53Z" fill="#a69074" stroke="#a69074" stroke-width="1.51"/><path d="M178,136L176,169L191,179Z" fill="#def0ed" stroke="#def0ed" stroke-width="1.51"/><path d="M177,-41L202,-9L203,-53Z" fill="#a69372" stroke="#a69372" stroke-width="1.51"/><path d="M162,274L200,312L205,266Z" fill="#80bbb4" stroke="#80bbb4" stroke-width="1.51"/><path d="M191,179L172,191L212,205Z" fill="#c7eae5" stroke="#c7eae5" stroke-width="1.51"/><path d="M172,191L180,237L212,205Z" fill="#bae4de" stroke="#bae4de" stroke-width="1.51"/><path d="M180,237L197,248L212,205Z" fill="#a4dcd2" stroke="#a4dcd2" stroke-width="1.51"/><path d="M162,99L200,124L212,104Z" fill="#e0e9d5" stroke="#e0e9d5" stroke-width="1.51"/><path d="M167,73L162,99L212,104Z" fill="#e3e3c8" stroke="#e3e3c8" stroke-width="1.51"/><path d="M205,56L167,73L212,104Z" fill="#d8dab9" stroke="#d8dab9" stroke-width="1.51"/><path d="M161,16L167,73L191,16Z" fill="#d9c096" stroke="#d9c096" stroke-width="1.51"/><path d="M191,16L167,73L205,56Z" fill="#d6c8a1" stroke="#d6c8a1" stroke-width="1.51"/><path d="M197,248L162,274L205,266Z" fill="#90c9c2" stroke="#90c9c2" stroke-width="1.51"/><path d="M161,16L144,39L167,73Z" fill="#e2c8a0" stroke="#e2c8a0" stroke-width="1.51"/><path d="M200,312L154,320L201,338Z" fill="#72a49d" stroke="#72a49d" stroke-width="1.51"/><path d="M162,274L154,320L200,312Z" fill="#82b2ac" stroke="#82b2ac" stroke-width="1.51"/><path d="M162,99L178,136L200,124Z" fill="#e6edde" stroke="#e6edde" stroke-width="1.51"/><path d="M156,0L191,16L202,-9Z" fill="#c3a881" stroke="#c3a881" stroke-width="1.51"/><path d="M177,-41L156,0L202,-9Z" fill="#bb9d79" stroke="#bb9d79" stroke-width="1.51"/><path d="M154,320L163,355L201,338Z" fill="#759d96" stroke="#759d96" stroke-width="1.51"/><path d="M180,237L162,274L197,248Z" fill="#9dd0ca" stroke="#9dd0ca" stroke-width="1.51"/><path d="M176,169L172,191L191,179Z" fill="#d5edea" stroke="#d5edea" stroke-width="1.51"/><path d="M156,0L161,16L191,16Z" fill="#d0af87" stroke="#d0af87" stroke-width="1.51"/><path d="M140,-46L156,0L177,-41Z" fill="#bb997a" stroke="#bb997a" stroke-width="1.51"/><path d="M162,99L144,107L178,136Z" fill="#f0eedd" stroke="#f0eedd" stroke-width="1.51"/><path d="M143,163L176,169L178,136Z" fill="#eaf2f1" stroke="#eaf2f1" stroke-width="1.51"/><path d="M123,241L162,274L180,237Z" fill="#add6cf" stroke="#add6cf" stroke-width="1.51"/><path d="M127,215L123,241L180,237Z" fill="#bfe1d8" stroke="#bfe1d8" stroke-width="1.51"/><path d="M172,191L127,215L180,237Z" fill="#c7e7e1" stroke="#c7e7e1" stroke-width="1.51"/><path d="M144,107L143,163L178,136Z" fill="#f3f2eb" stroke="#f3f2eb" stroke-width="1.51"/><path d="M143,163L172,191L176,169Z" fill="#e1f0ee" stroke="#e1f0ee" stroke-width="1.51"/><path d="M144,39L144,73L167,73Z" fill="#ead7b4" stroke="#ead7b4" stroke-width="1.51"/><path d="M119,145L143,163L144,107Z" fill="#f6f0e5" stroke="#f6f0e5" stroke-width="1.51"/><path d="M140,-46L127,-13L156,0Z" fill="#c59e78" stroke="#c59e78" stroke-width="1.51"/><path d="M131,310L154,320L162,274Z" fill="#8fb6b0" stroke="#8fb6b0" stroke-width="1.51"/><path d="M132,279L131,310L162,274Z" fill="#97bdb5" stroke="#97bdb5" stroke-width="1.51"/><path d="M143,163L127,215L172,191Z" fill="#e0f0ec" stroke="#e0f0ec" stroke-width="1.51"/><path d="M123,241L132,279L162,274Z" fill="#a5cbc1" stroke="#a5cbc1" stroke-width="1.51"/><path d="M154,320L128,351L163,355Z" fill="#809e96" stroke="#809e96" stroke-width="1.51"/><path d="M144,73L162,99L167,73Z" fill="#ece1c4" stroke="#ece1c4" stroke-width="1.51"/><path d="M144,73L144,107L162,99Z" fill="#f3e7cf" stroke="#f3e7cf" stroke-width="1.51"/><path d="M156,0L144,39L161,16Z" fill="#dbb58d" stroke="#dbb58d" stroke-width="1.51"/><path d="M110,203L127,215L143,163Z" fill="#deecdf" stroke="#deecdf" stroke-width="1.51"/><path d="M131,310L128,351L154,320Z" fill="#86a59a" stroke="#86a59a" stroke-width="1.51"/><path d="M110,23L144,39L156,0Z" fill="#deb587" stroke="#deb587" stroke-width="1.51"/><path d="M127,-13L110,23L156,0Z" fill="#d3aa7c" stroke="#d3aa7c" stroke-width="1.51"/><path d="M101,172L110,203L143,163Z" fill="#e6ecdd" stroke="#e6ecdd" stroke-width="1.51"/><path d="M93,106L119,145L144,107Z" fill="#f6ebd0" stroke="#f6ebd0" stroke-width="1.51"/><path d="M110,23L90,52L144,39Z" fill="#e3bf89" stroke="#e3bf89" stroke-width="1.51"/><path d="M93,106L144,107L144,73Z" fill="#f3e5c4" stroke="#f3e5c4" stroke-width="1.51"/><path d="M90,52L93,106L144,73Z" fill="#eedaa9" stroke="#eedaa9" stroke-width="1.51"/><path d="M144,39L90,52L144,73Z" fill="#e8ce9f" stroke="#e8ce9f" stroke-width="1.51"/><path d="M119,145L101,172L143,163Z" fill="#f0efe1" stroke="#f0efe1" stroke-width="1.51"/><path d="M95,-51L127,-13L140,-46Z" fill="#b7936a" stroke="#b7936a" stroke-width="1.51"/><path d="M93,106L86,120L119,145Z" fill="#f4e6c5" stroke="#f4e6c5" stroke-width="1.51"/><path d="M101,305L96,355L128,351Z" fill="#849b83" stroke="#849b83" stroke-width="1.51"/><path d="M101,305L128,351L131,310Z" fill="#88a593" stroke="#88a593" stroke-width="1.51"/><path d="M123,241L95,283L132,279Z" fill="#a5c7b3" stroke="#a5c7b3" stroke-width="1.51"/><path d="M101,305L131,310L132,279Z" fill="#93b4a3" stroke="#93b4a3" stroke-width="1.51"/><path d="M95,283L101,305L132,279Z" fill="#98b7a1" stroke="#98b7a1" stroke-width="1.51"/><path d="M87,242L95,283L123,241Z" fill="#aecab0" stroke="#aecab0" stroke-width="1.51"/><path d="M87,0L110,23L127,-13Z" fill="#d1a76f" stroke="#d1a76f" stroke-width="1.51"/><path d="M110,203L87,242L123,241Z" fill="#c3dcc4" stroke="#c3dcc4" stroke-width="1.51"/><path d="M110,203L123,241L127,215Z" fill="#cae2cf" stroke="#cae2cf" stroke-width="1.51"/><path d="M95,-51L87,0L127,-13Z" fill="#c09662" stroke="#c09662" stroke-width="1.51"/><path d="M90,52L71,90L93,106Z" fill="#ead29a" stroke="#ead29a" stroke-width="1.51"/><path d="M86,120L101,172L119,145Z" fill="#f5ebd4" stroke="#f5ebd4" stroke-width="1.51"/><path d="M64,-11L87,0L95,-51Z" fill="#ba8d51" stroke="#ba8d51" stroke-width="1.51"/><path d="M86,120L65,131L101,172Z" fill="#f1e2c2" stroke="#f1e2c2" stroke-width="1.51"/><path d="M69,350L96,355L101,305Z" fill="#819375" stroke="#819375" stroke-width="1.51"/><path d="M61,311L69,350L101,305Z" fill="#839674" stroke="#839674" stroke-width="1.51"/><path d="M64,34L90,52L110,23Z" fill="#dcb573" stroke="#dcb573" stroke-width="1.51"/><path d="M87,0L64,34L110,23Z" fill="#d4a765" stroke="#d4a765" stroke-width="1.51"/><path d="M57,228L87,242L110,203Z" fill="#c3d4b3" stroke="#c3d4b3" stroke-width="1.51"/><path d="M56,191L57,228L110,203Z" fill="#ced4b2" stroke="#ced4b2" stroke-width="1.51"/><path d="M101,172L56,191L110,203Z" fill="#dee1c4" stroke="#dee1c4" stroke-width="1.51"/><path d="M87,242L54,276L95,283Z" fill="#a0b896" stroke="#a0b896" stroke-width="1.51"/><path d="M65,131L49,177L101,172Z" fill="#e8dcbb" stroke="#e8dcbb" stroke-width="1.51"/><path d="M49,177L56,191L101,172Z" fill="#ded8b5" stroke="#ded8b5" stroke-width="1.51"/><path d="M95,283L61,311L101,305Z" fill="#8fa789" stroke="#8fa789" stroke-width="1.51"/><path d="M52,64L71,90L90,52Z" fill="#e2c583" stroke="#e2c583" stroke-width="1.51"/><path d="M54,276L61,311L95,283Z" fill="#91a682" stroke="#91a682" stroke-width="1.51"/><path d="M51,-50L64,-11L95,-51Z" fill="#aa8145" stroke="#aa8145" stroke-width="1.51"/><path d="M71,90L86,120L93,106Z" fill="#efdbac" stroke="#efdbac" stroke-width="1.51"/><path d="M64,-11L64,34L87,0Z" fill="#c89a53" stroke="#c89a53" stroke-width="1.51"/><path d="M64,34L52,64L90,52Z" fill="#dbb670" stroke="#dbb670" stroke-width="1.51"/><path d="M30,333L-19,351L69,350Z" fill="#70693c" stroke="#70693c" stroke-width="1.51"/><path d="M71,90L65,131L86,120Z" fill="#eed9aa" stroke="#eed9aa" stroke-width="1.51"/><path d="M57,228L54,276L87,242Z" fill="#acbe97" stroke="#acbe97" stroke-width="1.51"/><path d="M29,262L54,276L57,228Z" fill="#a3ab80" stroke="#a3ab80" stroke-width="1.51"/><path d="M64,-11L23,16L64,34Z" fill="#c38e42" stroke="#c38e42" stroke-width="1.51"/><path d="M28,166L49,177L65,131Z" fill="#e3cba5" stroke="#e3cba5" stroke-width="1.51"/><path d="M61,311L30,333L69,350Z" fill="#7c835b" stroke="#7c835b" stroke-width="1.51"/><path d="M37,99L65,131L71,90Z" fill="#e8ce97" stroke="#e8ce97" stroke-width="1.51"/><path d="M52,64L37,99L71,90Z" fill="#e0c080" stroke="#e0c080" stroke-width="1.51"/><path d="M54,276L36,309L61,311Z" fill="#89936b" stroke="#89936b" stroke-width="1.51"/><path d="M18,140L28,166L65,131Z" fill="#e4c39a" stroke="#e4c39a" stroke-width="1.51"/><path d="M56,191L31,200L57,228Z" fill="#c8c39a" stroke="#c8c39a" stroke-width="1.51"/><path d="M36,309L30,333L61,311Z" fill="#7e8259" stroke="#7e8259" stroke-width="1.51"/><path d="M51,-50L21,-11L64,-11Z" fill="#aa7630" stroke="#aa7630" stroke-width="1.51"/><path d="M21,-11L23,16L64,-11Z" fill="#b47b2e" stroke="#b47b2e" stroke-width="1.51"/><path d="M37,99L18,140L65,131Z" fill="#e4c290" stroke="#e4c290" stroke-width="1.51"/><path d="M23,16L52,64L64,34Z" fill="#ce9c50" stroke="#ce9c50" stroke-width="1.51"/><path d="M28,71L37,99L52,64Z" fill="#d9b26d" stroke="#d9b26d" stroke-width="1.51"/><path d="M23,16L28,71L52,64Z" fill="#ce9d50" stroke="#ce9d50" stroke-width="1.51"/><path d="M19,237L29,262L57,228Z" fill="#abab7d" stroke="#abab7d" stroke-width="1.51"/><path d="M2,-55L15,-43L51,-50Z" fill="#8e5a19" stroke="#8e5a19" stroke-width="1.51"/><path d="M15,-43L21,-11L51,-50Z" fill="#9b6620" stroke="#9b6620" stroke-width="1.51"/><path d="M31,200L19,237L57,228Z" fill="#bab587" stroke="#bab587" stroke-width="1.51"/><path d="M49,177L31,200L56,191Z" fill="#d3c69d" stroke="#d3c69d" stroke-width="1.51"/><path d="M29,262L36,309L54,276Z" fill="#90956b" stroke="#90956b" stroke-width="1.51"/><path d="M28,166L31,200L49,177Z" fill="#d5bf96" stroke="#d5bf96" stroke-width="1.51"/><path d="M-21,96L2,121L28,71Z" fill="#cda165" stroke="#cda165" stroke-width="1.51"/><path d="M23,16L-6,54L28,71Z" fill="#c38d40" stroke="#c38d40" stroke-width="1.51"/><path d="M29,262L-7,267L36,309Z" fill="#8b895d" stroke="#8b895d" stroke-width="1.51"/><path d="M-7,267L-21,317L36,309Z" fill="#79744c" stroke="#79744c" stroke-width="1.51"/><path d="M28,71L2,121L37,99Z" fill="#d9ae6e" stroke="#d9ae6e" stroke-width="1.51"/><path d="M2,121L18,140L37,99Z" fill="#dcb27c" stroke="#dcb27c" stroke-width="1.51"/><path d="M-12,33L-6,54L23,16Z" fill="#b67c2e" stroke="#b67c2e" stroke-width="1.51"/><path d="M-21,317L30,333L36,309Z" fill="#746f45" stroke="#746f45" stroke-width="1.51"/><path d="M-5,156L-19,191L28,166Z" fill="#c9a982" stroke="#c9a982" stroke-width="1.51"/><path d="M28,166L-19,191L31,200Z" fill="#c9af85" stroke="#c9af85" stroke-width="1.51"/><path d="M-19,191L19,237L31,200Z" fill="#b8a77c" stroke="#b8a77c" stroke-width="1.51"/><path d="M18,140L-5,156L28,166Z" fill="#d8b38b" stroke="#d8b38b" stroke-width="1.51"/><path d="M19,237L-7,267L29,262Z" fill="#989468" stroke="#989468" stroke-width="1.51"/><path d="M-21,317L-19,351L30,333Z" fill="#665d36" stroke="#665d36" stroke-width="1.51"/><path d="M-6,54L-21,96L28,71Z" fill="#c49652" stroke="#c49652" stroke-width="1.51"/><path d="M-19,191L-15,241L19,237Z" fill="#a69a70" stroke="#a69a70" stroke-width="1.51"/><path d="M-15,241L-7,267L19,237Z" fill="#958f66" stroke="#958f66" stroke-width="1.51"/><path d="M15,-43L-4,-9L21,-11Z" fill="#9b6016" stroke="#9b6016" stroke-width="1.51"/><path d="M21,-11L-4,-9L23,16Z" fill="#a96c1f" stroke="#a96c1f" stroke-width="1.51"/><path d="M-4,-9L-12,33L23,16Z" fill="#ab6e20" stroke="#ab6e20" stroke-width="1.51"/><path d="M2,121L-5,156L18,140Z" fill="#d5ac81" stroke="#d5ac81" stroke-width="1.51"/><path d="M-33,-30L-4,-9L2,-55Z" fill="#874f0c" stroke="#874f0c" stroke-width="1.51"/><path d="M2,-55L-4,-9L15,-43Z" fill="#8d5612" stroke="#8d5612" stroke-width="1.51"/><path d="M-42,273L-21,317L-7,267Z" fill="#706d49" stroke="#706d49" stroke-width="1.51"/><path d="M-44,73L-21,96L-6,54Z" fill="#b5884a" stroke="#b5884a" stroke-width="1.51"/><path d="M-42,-10L-12,33L-4,-9Z" fill="#985d14" stroke="#985d14" stroke-width="1.51"/><path d="M-33,135L-5,156L2,121Z" fill="#caa179" stroke="#caa179" stroke-width="1.51"/><path d="M-21,96L-33,135L2,121Z" fill="#c59c6c" stroke="#c59c6c" stroke-width="1.51"/><path d="M-19,191L-56,215L-15,241Z" fill="#9a8e6b" stroke="#9a8e6b" stroke-width="1.51"/><path d="M-49,179L-19,191L-5,156Z" fill="#b69a78" stroke="#b69a78" stroke-width="1.51"/><path d="M-33,-30L-42,-10L-4,-9Z" fill="#874e0a" stroke="#874e0a" stroke-width="1.51"/><path d="M-42,273L-47,311L-21,317Z" fill="#5f5f3f" stroke="#5f5f3f" stroke-width="1.51"/><path d="M-43,107L-33,135L-21,96Z" fill="#b99367" stroke="#b99367" stroke-width="1.51"/><path d="M-42,-10L-48,36L-12,33Z" fill="#975f19" stroke="#975f19" stroke-width="1.51"/><path d="M-33,135L-49,179L-5,156Z" fill="#bc997a" stroke="#bc997a" stroke-width="1.51"/><path d="M-15,241L-42,273L-7,267Z" fill="#817d57" stroke="#817d57" stroke-width="1.51"/><path d="M-12,33L-48,36L-6,54Z" fill="#a9742d" stroke="#a9742d" stroke-width="1.51"/><path d="M-48,36L-44,73L-6,54Z" fill="#a77938" stroke="#a77938" stroke-width="1.51"/><path d="M-21,317L-40,345L-19,351Z" fill="#56502d" stroke="#56502d" stroke-width="1.51"/><path d="M-56,215L-49,249L-15,241Z" fill="#858362" stroke="#858362" stroke-width="1.51"/><path d="M-49,249L-42,273L-15,241Z" fill="#7b7a58" stroke="#7b7a58" stroke-width="1.51"/><path d="M-47,311L-40,345L-21,317Z" fill="#545333" stroke="#545333" stroke-width="1.51"/><path d="M-49,179L-56,215L-19,191Z" fill="#9f8f71" stroke="#9f8f71" stroke-width="1.51"/><path d="M-44,73L-43,107L-21,96Z" fill="#b18b56" stroke="#b18b56" stroke-width="1.51"/><path d="M-43,107L-49,179L-33,135Z" fill="#b49374" stroke="#b49374" stroke-width="1.51"/><path d="M-49,249L-47,311L-42,273Z" fill="#63684a" stroke="#63684a" stroke-width="1.51"/><path d="M-44,73L-48,36L-43,107Z" fill="#a57e45" stroke="#a57e45" stroke-width="1.51"/><path d="M-48,36L-49,179L-43,107Z" fill="#ae8c61" stroke="#ae8c61" stroke-width="1.51"/><path d="M-56,215L-49,179L-48,36Z" fill="#ad8f74" stroke="#ad8f74" stroke-width="1.51"/><path d="M-49,249L-56,215L-47,311Z" fill="#6d7154" stroke="#6d7154" stroke-width="1.51"/></svg>