<svg xmlns="http://www.w3.org/2000/svg" width="300" height="300"><path d="M29,345L-39,345L66,349Z" fill="#6c6337" stroke="#6c6337" stroke-width="1.51"/><path d="M180,338L135,338L207,341Z" fill="#749d95" stroke="#749d95" stroke-width="1.51"/><path d="M135,338L66,349L207,341Z" fill="#819c8f" stroke="#819c8f" stroke-width="1.51"/><path d="M53,-54L105,-45L215,-42Z" fill="#af8f6a" stroke="#af8f6a" stroke-width="1.51"/><path d="M207,341L66,349L235,342Z" fill="#759b93" stroke="#759b93" stroke-width="1.51"/><path d="M235,342L66,349L307,343Z" fill="#5f948a" stroke="#5f948a" stroke-width="1.51"/><path d="M313,109L295,134L318,164Z" fill="#8db0a4" stroke="#8db0a4" stroke-width="1.51"/><path d="M307,205L318,249L342,245Z" fill="#49968c" stroke="#49968c" stroke-width="1.51"/><path d="M342,245L337,270L343,297Z" fill="#23756c" stroke="#23756c" stroke-width="1.51"/><path d="M343,297L313,320L343,333Z" fill="#025f56" stroke="#025f56" stroke-width="1.51"/><path d="M343,-14L306,-10L344,31Z" fill="#696239" stroke="#696239" stroke-width="1.51"/><path d="M36,-55L53,-54L348,-52Z" fill="#ab8f75" stroke="#ab8f75" stroke-width="1.51"/><path d="M215,-42L233,-41L348,-52Z" fill="#6c6f50" stroke="#6c6f50" stroke-width="1.51"/><path d="M53,-54L215,-42L348,-52Z" fill="#92886b" stroke="#92886b" stroke-width="1.51"/><path d="M284,-35L317,-37L348,-52Z" fill="#545436" stroke="#545436" stroke-width="1.51"/><path d="M233,-41L284,-35L348,-52Z" fill="#606345" stroke="#606345" stroke-width="1.51"/><path d="M317,-37L343,-14L348,-52Z" fill="#524e2d" stroke="#524e2d" stroke-width="1.51"/><path d="M343,-14L344,31L348,-52Z" fill="#5d532d" stroke="#5d532d" stroke-width="1.51"/><path d="M330,90L313,109L352,126Z" fill="#869e87" stroke="#869e87" stroke-width="1.51"/><path d="M318,164L344,163L352,126Z" fill="#81a099" stroke="#81a099" stroke-width="1.51"/><path d="M313,109L318,164L352,126Z" fill="#85a497" stroke="#85a497" stroke-width="1.51"/><path d="M334,75L330,90L352,126Z" fill="#81957a" stroke="#81957a" stroke-width="1.51"/><path d="M344,31L334,75L352,126Z" fill="#7c8a68" stroke="#7c8a68" stroke-width="1.51"/><path d="M348,-52L344,31L352,126Z" fill="#716d41" stroke="#716d41" stroke-width="1.51"/><path d="M307,205L342,245L352,210Z" fill="#53948a" stroke="#53948a" stroke-width="1.51"/><path d="M344,163L318,164L352,210Z" fill="#719c94" stroke="#719c94" stroke-width="1.51"/><path d="M318,164L307,205L352,210Z" fill="#6ca199" stroke="#6ca199" stroke-width="1.51"/><path d="M343,297L343,333L352,210Z" fill="#196d63" stroke="#196d63" stroke-width="1.51"/><path d="M352,126L344,163L352,210Z" fill="#759890" stroke="#759890" stroke-width="1.51"/><path d="M342,245L343,297L352,210Z" fill="#357e74" stroke="#357e74" stroke-width="1.51"/><path d="M296,59L334,75L344,31Z" fill="#7f8860" stroke="#7f8860" stroke-width="1.51"/><path d="M295,39L296,59L344,31Z" fill="#82865d" stroke="#82865d" stroke-width="1.51"/><path d="M318,249L337,270L342,245Z" fill="#348379" stroke="#348379" stroke-width="1.51"/><path d="M337,270L310,270L343,297Z" fill="#1c766d" stroke="#1c766d" stroke-width="1.51"/><path d="M306,-10L295,39L344,31Z" fill="#797449" stroke="#797449" stroke-width="1.51"/><path d="M310,270L313,320L343,297Z" fill="#127168" stroke="#127168" stroke-width="1.51"/><path d="M317,-37L306,-10L343,-14Z" fill="#605b36" stroke="#605b36" stroke-width="1.51"/><path d="M313,320L307,343L343,333Z" fill="#015d54" stroke="#015d54" stroke-width="1.51"/><path d="M276,333L235,342L307,343Z" fill="#20746b" stroke="#20746b" stroke-width="1.51"/><path d="M318,249L310,270L337,270Z" fill="#2d847b" stroke="#2d847b" stroke-width="1.51"/><path d="M282,14L295,39L306,-10Z" fill="#807d52" stroke="#807d52" stroke-width="1.51"/><path d="M296,59L330,90L334,75Z" fill="#849674" stroke="#849674" stroke-width="1.51"/><path d="M296,59L313,109L330,90Z" fill="#899f81" stroke="#899f81" stroke-width="1.51"/><path d="M105,-45L145,-35L215,-42Z" fill="#b39579" stroke="#b39579" stroke-width="1.51"/><path d="M284,-1L282,14L306,-10Z" fill="#7b784f" stroke="#7b784f" stroke-width="1.51"/><path d="M279,214L279,238L307,205Z" fill="#65afa6" stroke="#65afa6" stroke-width="1.51"/><path d="M310,270L279,284L313,320Z" fill="#207f77" stroke="#207f77" stroke-width="1.51"/><path d="M296,59L271,73L313,109Z" fill="#91a888" stroke="#91a888" stroke-width="1.51"/><path d="M271,73L265,88L313,109Z" fill="#99b496" stroke="#99b496" stroke-width="1.51"/><path d="M284,-35L306,-10L317,-37Z" fill="#656240" stroke="#656240" stroke-width="1.51"/><path d="M279,238L310,270L318,249Z" fill="#40968d" stroke="#40968d" stroke-width="1.51"/><path d="M307,205L279,238L318,249Z" fill="#54a399" stroke="#54a399" stroke-width="1.51"/><path d="M295,134L283,139L318,164Z" fill="#90b7b0" stroke="#90b7b0" stroke-width="1.51"/><path d="M283,139L274,157L318,164Z" fill="#92bbb6" stroke="#92bbb6" stroke-width="1.51"/><path d="M274,157L307,205L318,164Z" fill="#82b3ad" stroke="#82b3ad" stroke-width="1.51"/><path d="M274,157L279,214L307,205Z" fill="#7eb9b2" stroke="#7eb9b2" stroke-width="1.51"/><path d="M276,333L307,343L313,320Z" fill="#106a61" stroke="#106a61" stroke-width="1.51"/><path d="M279,284L276,333L313,320Z" fill="#1a7971" stroke="#1a7971" stroke-width="1.51"/><path d="M265,88L295,134L313,109Z" fill="#97b6a1" stroke="#97b6a1" stroke-width="1.51"/><path d="M262,297L276,333L279,284Z" fill="#2b8880" stroke="#2b8880" stroke-width="1.51"/><path d="M279,238L279,284L310,270Z" fill="#3a968e" stroke="#3a968e" stroke-width="1.51"/><path d="M95,341L66,349L135,338Z" fill="#809378" stroke="#809378" stroke-width="1.51"/><path d="M284,-35L284,-1L306,-10Z" fill="#726e48" stroke="#726e48" stroke-width="1.51"/><path d="M265,88L283,139L295,134Z" fill="#9bbead" stroke="#9bbead" stroke-width="1.51"/><path d="M274,157L246,190L279,214Z" fill="#8ec7c0" stroke="#8ec7c0" stroke-width="1.51"/><path d="M265,88L242,107L283,139Z" fill="#a8c8b2" stroke="#a8c8b2" stroke-width="1.51"/><path d="M295,39L271,73L296,59Z" fill="#909f78" stroke="#909f78" stroke-width="1.51"/><path d="M282,14L271,73L295,39Z" fill="#90976d" stroke="#90976d" stroke-width="1.51"/><path d="M145,-35L176,-33L215,-42Z" fill="#ab9475" stroke="#ab9475" stroke-width="1.51"/><path d="M228,16L230,75L271,73Z" fill="#aeb990" stroke="#aeb990" stroke-width="1.51"/><path d="M279,238L241,277L279,284Z" fill="#48a39a" stroke="#48a39a" stroke-width="1.51"/><path d="M228,16L271,73L282,14Z" fill="#9d9f72" stroke="#9d9f72" stroke-width="1.51"/><path d="M235,-19L228,16L282,14Z" fill="#989268" stroke="#989268" stroke-width="1.51"/><path d="M242,107L239,121L283,139Z" fill="#aecfbe" stroke="#aecfbe" stroke-width="1.51"/><path d="M235,-19L282,14L284,-1Z" fill="#87845b" stroke="#87845b" stroke-width="1.51"/><path d="M235,-19L284,-1L284,-35Z" fill="#7e7a54" stroke="#7e7a54" stroke-width="1.51"/><path d="M233,-41L235,-19L284,-35Z" fill="#807e5b" stroke="#807e5b" stroke-width="1.51"/><path d="M239,121L274,157L283,139Z" fill="#a5cbc1" stroke="#a5cbc1" stroke-width="1.51"/><path d="M262,297L241,314L276,333Z" fill="#338a81" stroke="#338a81" stroke-width="1.51"/><path d="M279,214L236,226L279,238Z" fill="#6ebcb2" stroke="#6ebcb2" stroke-width="1.51"/><path d="M246,190L236,226L279,214Z" fill="#85c8bf" stroke="#85c8bf" stroke-width="1.51"/><path d="M236,226L241,277L279,238Z" fill="#66b9ae" stroke="#66b9ae" stroke-width="1.51"/><path d="M241,277L262,297L279,284Z" fill="#3f9a92" stroke="#3f9a92" stroke-width="1.51"/><path d="M241,314L235,342L276,333Z" fill="#38877d" stroke="#38877d" stroke-width="1.51"/><path d="M225,168L246,190L274,157Z" fill="#a5d5ce" stroke="#a5d5ce" stroke-width="1.51"/><path d="M239,121L225,168L274,157Z" fill="#b3d9d2" stroke="#b3d9d2" stroke-width="1.51"/><path d="M230,75L265,88L271,73Z" fill="#a9bf9d" stroke="#a9bf9d" stroke-width="1.51"/><path d="M230,75L242,107L265,88Z" fill="#b3cbac" stroke="#b3cbac" stroke-width="1.51"/><path d="M241,277L241,314L262,297Z" fill="#479d93" stroke="#479d93" stroke-width="1.51"/><path d="M228,16L191,65L230,75Z" fill="#c2c399" stroke="#c2c399" stroke-width="1.51"/><path d="M205,232L213,275L236,226Z" fill="#86cbc1" stroke="#86cbc1" stroke-width="1.51"/><path d="M209,130L225,168L239,121Z" fill="#c5e3d9" stroke="#c5e3d9" stroke-width="1.51"/><path d="M213,275L241,314L241,277Z" fill="#59aba1" stroke="#59aba1" stroke-width="1.51"/><path d="M236,226L213,275L241,277Z" fill="#6fbeb3" stroke="#6fbeb3" stroke-width="1.51"/><path d="M214,212L236,226L246,190Z" fill="#98d6cc" stroke="#98d6cc" stroke-width="1.51"/><path d="M225,168L214,212L246,190Z" fill="#aaded6" stroke="#aaded6" stroke-width="1.51"/><path d="M201,16L191,65L228,16Z" fill="#c4b78a" stroke="#c4b78a" stroke-width="1.51"/><path d="M213,275L196,305L241,314Z" fill="#63aaa1" stroke="#63aaa1" stroke-width="1.51"/><path d="M207,341L235,342L241,314Z" fill="#4c9288" stroke="#4c9288" stroke-width="1.51"/><path d="M230,75L196,107L242,107Z" fill="#c6d9bd" stroke="#c6d9bd" stroke-width="1.51"/><path d="M209,130L239,121L242,107Z" fill="#c2deca" stroke="#c2deca" stroke-width="1.51"/><path d="M196,107L209,130L242,107Z" fill="#cde2ce" stroke="#cde2ce" stroke-width="1.51"/><path d="M196,305L207,341L241,314Z" fill="#5b9d94" stroke="#5b9d94" stroke-width="1.51"/><path d="M192,-8L228,16L235,-19Z" fill="#a99c72" stroke="#a99c72" stroke-width="1.51"/><path d="M192,-8L201,16L228,16Z" fill="#b8a67c" stroke="#b8a67c" stroke-width="1.51"/><path d="M233,-41L215,-42L235,-19Z" fill="#8f8865" stroke="#8f8865" stroke-width="1.51"/><path d="M214,212L205,232L236,226Z" fill="#97d6cc" stroke="#97d6cc" stroke-width="1.51"/><path d="M215,-42L192,-8L235,-19Z" fill="#a1926d" stroke="#a1926d" stroke-width="1.51"/><path d="M209,130L194,156L225,168Z" fill="#d0eae5" stroke="#d0eae5" stroke-width="1.51"/><path d="M194,156L214,212L225,168Z" fill="#bfe6df" stroke="#bfe6df" stroke-width="1.51"/><path d="M191,65L196,107L230,75Z" fill="#d1d9b9" stroke="#d1d9b9" stroke-width="1.51"/><path d="M194,156L171,176L214,212Z" fill="#ccebe6" stroke="#ccebe6" stroke-width="1.51"/><path d="M191,65L178,92L196,107Z" fill="#dee0c3" stroke="#dee0c3" stroke-width="1.51"/><path d="M175,21L191,65L201,16Z" fill="#d0bd93" stroke="#d0bd93" stroke-width="1.51"/><path d="M196,305L180,338L207,341Z" fill="#6aa098" stroke="#6aa098" stroke-width="1.51"/><path d="M205,232L167,267L213,275Z" fill="#8ecbc3" stroke="#8ecbc3" stroke-width="1.51"/><path d="M171,176L169,207L214,212Z" fill="#c6e9e3" stroke="#c6e9e3" stroke-width="1.51"/><path d="M176,-33L192,-8L215,-42Z" fill="#ab9574" stroke="#ab9574" stroke-width="1.51"/><path d="M169,207L205,232L214,212Z" fill="#afe0d8" stroke="#afe0d8" stroke-width="1.51"/><path d="M169,294L196,305L213,275Z" fill="#7bb7af" stroke="#7bb7af" stroke-width="1.51"/><path d="M167,267L169,294L213,275Z" fill="#87c0b9" stroke="#87c0b9" stroke-width="1.51"/><path d="M196,107L169,143L209,130Z" fill="#e0ecdf" stroke="#e0ecdf" stroke-width="1.51"/><path d="M169,143L194,156L209,130Z" fill="#dfefe9" stroke="#dfefe9" stroke-width="1.51"/><path d="M156,250L167,267L205,232Z" fill="#a2d4cc" stroke="#a2d4cc" stroke-width="1.51"/><path d="M169,207L156,250L205,232Z" fill="#b1dfd8" stroke="#b1dfd8" stroke-width="1.51"/><path d="M192,-8L175,21L201,16Z" fill="#c5ac83" stroke="#c5ac83" stroke-width="1.51"/><path d="M175,21L156,62L191,65Z" fill="#dccba4" stroke="#dccba4" stroke-width="1.51"/><path d="M176,-33L169,-19L192,-8Z" fill="#b89b78" stroke="#b89b78" stroke-width="1.51"/><path d="M169,294L180,338L196,305Z" fill="#78aba4" stroke="#78aba4" stroke-width="1.51"/><path d="M178,92L169,143L196,107Z" fill="#e6ecda" stroke="#e6ecda" stroke-width="1.51"/><path d="M142,119L169,143L178,92Z" fill="#efeedf" stroke="#efeedf" stroke-width="1.51"/><path d="M143,109L142,119L178,92Z" fill="#f3edda" stroke="#f3edda" stroke-width="1.51"/><path d="M169,143L171,176L194,156Z" fill="#e2f1ee" stroke="#e2f1ee" stroke-width="1.51"/><path d="M156,62L178,92L191,65Z" fill="#e1dbba" stroke="#e1dbba" stroke-width="1.51"/><path d="M169,-19L175,21L192,-8Z" fill="#c3a680" stroke="#c3a680" stroke-width="1.51"/><path d="M145,228L156,250L169,207Z" fill="#bee2dc" stroke="#bee2dc" stroke-width="1.51"/><path d="M169,-19L129,-13L175,21Z" fill="#cca783" stroke="#cca783" stroke-width="1.51"/><path d="M156,62L144,74L178,92Z" fill="#eadfbf" stroke="#eadfbf" stroke-width="1.51"/><path d="M169,294L139,306L180,338Z" fill="#82ada7" stroke="#82ada7" stroke-width="1.51"/><path d="M139,306L135,338L180,338Z" fill="#84a6a0" stroke="#84a6a0" stroke-width="1.51"/><path d="M145,178L169,207L171,176Z" fill="#dbefec" stroke="#dbefec" stroke-width="1.51"/><path d="M127,39L156,62L175,21Z" fill="#e4c69f" stroke="#e4c69f" stroke-width="1.51"/><path d="M144,74L143,109L178,92Z" fill="#f0e6cd" stroke="#f0e6cd" stroke-width="1.51"/><path d="M169,143L145,178L171,176Z" fill="#e6f2f0" stroke="#e6f2f0" stroke-width="1.51"/><path d="M145,-35L169,-19L176,-33Z" fill="#b99979" stroke="#b99979" stroke-width="1.51"/><path d="M129,-13L127,39L175,21Z" fill="#dbb388" stroke="#dbb388" stroke-width="1.51"/><path d="M167,267L136,272L169,294Z" fill="#96c4be" stroke="#96c4be" stroke-width="1.51"/><path d="M145,-35L129,-13L169,-19Z" fill="#c39d7b" stroke="#c39d7b" stroke-width="1.51"/><path d="M145,178L128,197L169,207Z" fill="#ddefea" stroke="#ddefea" stroke-width="1.51"/><path d="M128,197L145,228L169,207Z" fill="#cfe9e3" stroke="#cfe9e3" stroke-width="1.51"/><path d="M136,272L139,306L169,294Z" fill="#94bcb6" stroke="#94bcb6" stroke-width="1.51"/><path d="M142,119L145,178L169,143Z" fill="#f4f4f3" stroke="#f4f4f3" stroke-width="1.51"/><path d="M156,250L136,272L167,267Z" fill="#a4cdc8" stroke="#a4cdc8" stroke-width="1.51"/><path d="M142,119L106,121L145,178Z" fill="#f6f0e3" stroke="#f6f0e3" stroke-width="1.51"/><path d="M145,228L136,272L156,250Z" fill="#b0d6ce" stroke="#b0d6ce" stroke-width="1.51"/><path d="M127,39L144,74L156,62Z" fill="#ebd4ac" stroke="#ebd4ac" stroke-width="1.51"/><path d="M98,227L102,270L136,272Z" fill="#aecdb7" stroke="#aecdb7" stroke-width="1.51"/><path d="M108,311L135,338L139,306Z" fill="#89a89a" stroke="#89a89a" stroke-width="1.51"/><path d="M87,93L106,121L143,109Z" fill="#f6e8c5" stroke="#f6e8c5" stroke-width="1.51"/><path d="M127,39L93,55L144,74Z" fill="#e9cf9e" stroke="#e9cf9e" stroke-width="1.51"/><path d="M87,93L143,109L144,74Z" fill="#f2e3bf" stroke="#f2e3bf" stroke-width="1.51"/><path d="M128,197L102,215L145,228Z" fill="#cfe4d5" stroke="#cfe4d5" stroke-width="1.51"/><path d="M102,215L98,227L145,228Z" fill="#c7dfcb" stroke="#c7dfcb" stroke-width="1.51"/><path d="M98,227L136,272L145,228Z" fill="#b8d8c8" stroke="#b8d8c8" stroke-width="1.51"/><path d="M85,171L128,197L145,178Z" fill="#e5ecdd" stroke="#e5ecdd" stroke-width="1.51"/><path d="M106,121L85,171L145,178Z" fill="#f3eedd" stroke="#f3eedd" stroke-width="1.51"/><path d="M105,-45L129,-13L145,-35Z" fill="#bb966e" stroke="#bb966e" stroke-width="1.51"/><path d="M136,272L108,311L139,306Z" fill="#93b6a7" stroke="#93b6a7" stroke-width="1.51"/><path d="M93,55L87,93L144,74Z" fill="#edd8a6" stroke="#edd8a6" stroke-width="1.51"/><path d="M105,40L127,39L129,-13Z" fill="#deb47e" stroke="#deb47e" stroke-width="1.51"/><path d="M106,121L142,119L143,109Z" fill="#f6edd5" stroke="#f6edd5" stroke-width="1.51"/><path d="M105,40L93,55L127,39Z" fill="#e5c48b" stroke="#e5c48b" stroke-width="1.51"/><path d="M102,270L108,311L136,272Z" fill="#9abba8" stroke="#9abba8" stroke-width="1.51"/><path d="M89,-18L105,40L129,-13Z" fill="#d1a76e" stroke="#d1a76e" stroke-width="1.51"/><path d="M108,311L95,341L135,338Z" fill="#869f8a" stroke="#869f8a" stroke-width="1.51"/><path d="M85,171L102,215L128,197Z" fill="#dee7d1" stroke="#dee7d1" stroke-width="1.51"/><path d="M105,-45L89,-18L129,-13Z" fill="#bf9664" stroke="#bf9664" stroke-width="1.51"/><path d="M98,227L53,264L102,270Z" fill="#acc3a2" stroke="#acc3a2" stroke-width="1.51"/><path d="M85,171L72,196L102,215Z" fill="#dadec1" stroke="#dadec1" stroke-width="1.51"/><path d="M89,-18L59,29L105,40Z" fill="#d2a561" stroke="#d2a561" stroke-width="1.51"/><path d="M61,154L85,171L106,121Z" fill="#f0e3c7" stroke="#f0e3c7" stroke-width="1.51"/><path d="M55,135L61,154L106,121Z" fill="#eeddb7" stroke="#eeddb7" stroke-width="1.51"/><path d="M102,270L66,306L108,311Z" fill="#93ac90" stroke="#93ac90" stroke-width="1.51"/><path d="M66,306L95,341L108,311Z" fill="#879d7f" stroke="#879d7f" stroke-width="1.51"/><path d="M55,-6L59,29L89,-18Z" fill="#c3944e" stroke="#c3944e" stroke-width="1.51"/><path d="M59,29L69,52L105,40Z" fill="#dab36e" stroke="#dab36e" stroke-width="1.51"/><path d="M87,93L64,106L106,121Z" fill="#f0ddaf" stroke="#f0ddaf" stroke-width="1.51"/><path d="M64,106L55,135L106,121Z" fill="#eedbaf" stroke="#eedbaf" stroke-width="1.51"/><path d="M51,232L53,264L98,227Z" fill="#b2c49c" stroke="#b2c49c" stroke-width="1.51"/><path d="M69,52L93,55L105,40Z" fill="#e0bf80" stroke="#e0bf80" stroke-width="1.51"/><path d="M53,-54L89,-18L105,-45Z" fill="#ac854e" stroke="#ac854e" stroke-width="1.51"/><path d="M53,264L66,306L102,270Z" fill="#97ae8b" stroke="#97ae8b" stroke-width="1.51"/><path d="M72,196L98,227L102,215Z" fill="#cddabd" stroke="#cddabd" stroke-width="1.51"/><path d="M69,52L87,93L93,55Z" fill="#e4ca8b" stroke="#e4ca8b" stroke-width="1.51"/><path d="M66,306L66,349L95,341Z" fill="#80906d" stroke="#80906d" stroke-width="1.51"/><path d="M72,196L51,232L98,227Z" fill="#c5d1ac" stroke="#c5d1ac" stroke-width="1.51"/><path d="M69,52L64,106L87,93Z" fill="#e6cd91" stroke="#e6cd91" stroke-width="1.51"/><path d="M53,-54L55,-6L89,-18Z" fill="#b18443" stroke="#b18443" stroke-width="1.51"/><path d="M61,154L72,196L85,171Z" fill="#e2dbba" stroke="#e2dbba" stroke-width="1.51"/><path d="M53,264L27,274L66,306Z" fill="#929d74" stroke="#929d74" stroke-width="1.51"/><path d="M66,306L29,345L66,349Z" fill="#7b825a" stroke="#7b825a" stroke-width="1.51"/><path d="M36,107L64,106L69,52Z" fill="#e2c486" stroke="#e2c486" stroke-width="1.51"/><path d="M16,63L36,107L69,52Z" fill="#d9b16b" stroke="#d9b16b" stroke-width="1.51"/><path d="M26,206L51,232L72,196Z" fill="#c5c299" stroke="#c5c299" stroke-width="1.51"/><path d="M35,168L26,206L72,196Z" fill="#d3c59c" stroke="#d3c59c" stroke-width="1.51"/><path d="M61,154L35,168L72,196Z" fill="#ded0aa" stroke="#ded0aa" stroke-width="1.51"/><path d="M53,-54L27,-14L55,-6Z" fill="#a97530" stroke="#a97530" stroke-width="1.51"/><path d="M17,316L29,345L66,306Z" fill="#7b7c52" stroke="#7b7c52" stroke-width="1.51"/><path d="M59,29L16,63L69,52Z" fill="#d2a65b" stroke="#d2a65b" stroke-width="1.51"/><path d="M36,-55L27,-14L53,-54Z" fill="#9b6a28" stroke="#9b6a28" stroke-width="1.51"/><path d="M36,107L55,135L64,106Z" fill="#e7ca96" stroke="#e7ca96" stroke-width="1.51"/><path d="M27,274L17,316L66,306Z" fill="#87895f" stroke="#87895f" stroke-width="1.51"/><path d="M55,-6L24,23L59,29Z" fill="#c38d3f" stroke="#c38d3f" stroke-width="1.51"/><path d="M24,23L16,63L59,29Z" fill="#c99344" stroke="#c99344" stroke-width="1.51"/><path d="M36,107L29,123L55,135Z" fill="#e4c28f" stroke="#e4c28f" stroke-width="1.51"/><path d="M55,135L35,168L61,154Z" fill="#e7cea8" stroke="#e7cea8" stroke-width="1.51"/><path d="M-38,-33L-5,-33L36,-55Z" fill="#865110" stroke="#865110" stroke-width="1.51"/><path d="M26,206L25,229L51,232Z" fill="#b9b386" stroke="#b9b386" stroke-width="1.51"/><path d="M51,232L25,229L53,264Z" fill="#adb185" stroke="#adb185" stroke-width="1.51"/><path d="M25,229L27,274L53,264Z" fill="#a1a276" stroke="#a1a276" stroke-width="1.51"/><path d="M27,-14L24,23L55,-6Z" fill="#b67c2f" stroke="#b67c2f" stroke-width="1.51"/><path d="M29,123L35,168L55,135Z" fill="#e5c49a" stroke="#e5c49a" stroke-width="1.51"/><path d="M25,229L-4,273L27,274Z" fill="#979367" stroke="#979367" stroke-width="1.51"/><path d="M2,331L-39,345L29,345Z" fill="#635a32" stroke="#635a32" stroke-width="1.51"/><path d="M-19,191L26,206L35,168Z" fill="#c8af85" stroke="#c8af85" stroke-width="1.51"/><path d="M-19,170L-19,191L35,168Z" fill="#c5a780" stroke="#c5a780" stroke-width="1.51"/><path d="M29,123L-9,142L35,168Z" fill="#ddb58a" stroke="#ddb58a" stroke-width="1.51"/><path d="M-5,-33L27,-14L36,-55Z" fill="#975f19" stroke="#975f19" stroke-width="1.51"/><path d="M-16,84L29,123L36,107Z" fill="#d8ad72" stroke="#d8ad72" stroke-width="1.51"/><path d="M16,63L-16,84L36,107Z" fill="#cfa260" stroke="#cfa260" stroke-width="1.51"/><path d="M-13,294L17,316L27,274Z" fill="#7e7b51" stroke="#7e7b51" stroke-width="1.51"/><path d="M-9,142L-19,170L35,168Z" fill="#ceab85" stroke="#ceab85" stroke-width="1.51"/><path d="M-2,64L-16,84L16,63Z" fill="#c3944f" stroke="#c3944f" stroke-width="1.51"/><path d="M-9,23L-2,64L16,63Z" fill="#bc883e" stroke="#bc883e" stroke-width="1.51"/><path d="M-9,23L16,63L24,23Z" fill="#bc8234" stroke="#bc8234" stroke-width="1.51"/><path d="M-19,230L-4,273L25,229Z" fill="#999368" stroke="#999368" stroke-width="1.51"/><path d="M-9,23L24,23L27,-14Z" fill="#b17324" stroke="#b17324" stroke-width="1.51"/><path d="M-20,-4L-9,23L27,-14Z" fill="#a2651a" stroke="#a2651a" stroke-width="1.51"/><path d="M-4,273L-13,294L27,274Z" fill="#827f56" stroke="#827f56" stroke-width="1.51"/><path d="M17,316L2,331L29,345Z" fill="#716a3f" stroke="#716a3f" stroke-width="1.51"/><path d="M-16,84L-9,142L29,123Z" fill="#d0a773" stroke="#d0a773" stroke-width="1.51"/><path d="M-19,230L25,229L26,206Z" fill="#b0a377" stroke="#b0a377" stroke-width="1.51"/><path d="M-5,-33L-20,-4L27,-14Z" fill="#975c13" stroke="#975c13" stroke-width="1.51"/><path d="M-19,191L-19,230L26,206Z" fill="#b09e76" stroke="#b09e76" stroke-width="1.51"/><path d="M-16,84L-32,97L-9,142Z" fill="#c49965" stroke="#c49965" stroke-width="1.51"/><path d="M-13,294L2,331L17,316Z" fill="#706b43" stroke="#706b43" stroke-width="1.51"/><path d="M-32,97L-33,142L-9,142Z" fill="#c19970" stroke="#c19970" stroke-width="1.51"/><path d="M-19,230L-31,273L-4,273Z" fill="#857f59" stroke="#857f59" stroke-width="1.51"/><path d="M-9,23L-34,61L-2,64Z" fill="#b27d37" stroke="#b27d37" stroke-width="1.51"/><path d="M-13,294L-42,303L2,331Z" fill="#68623e" stroke="#68623e" stroke-width="1.51"/><path d="M-42,303L-39,345L2,331Z" fill="#5a5533" stroke="#5a5533" stroke-width="1.51"/><path d="M-30,231L-31,273L-19,230Z" fill="#88845f" stroke="#88845f" stroke-width="1.51"/><path d="M-30,-7L-20,-4L-5,-33Z" fill="#8e530c" stroke="#8e530c" stroke-width="1.51"/><path d="M-34,61L-16,84L-2,64Z" fill="#b88a48" stroke="#b88a48" stroke-width="1.51"/><path d="M-45,22L-34,61L-9,23Z" fill="#a26c27" stroke="#a26c27" stroke-width="1.51"/><path d="M-38,-33L-30,-7L-5,-33Z" fill="#834c09" stroke="#834c09" stroke-width="1.51"/><path d="M-31,273L-13,294L-4,273Z" fill="#77744e" stroke="#77744e" stroke-width="1.51"/><path d="M-33,142L-19,170L-9,142Z" fill="#c59e7d" stroke="#c59e7d" stroke-width="1.51"/><path d="M-30,231L-19,230L-19,191Z" fill="#9f916c" stroke="#9f916c" stroke-width="1.51"/><path d="M-31,189L-30,231L-19,191Z" fill="#a59370" stroke="#a59370" stroke-width="1.51"/><path d="M-20,-4L-45,22L-9,23Z" fill="#9a6017" stroke="#9a6017" stroke-width="1.51"/><path d="M-30,-7L-45,22L-20,-4Z" fill="#8f5713" stroke="#8f5713" stroke-width="1.51"/><path d="M-33,142L-40,161L-19,170Z" fill="#ba997a" stroke="#ba997a" stroke-width="1.51"/><path d="M-19,170L-31,189L-19,191Z" fill="#b49977" stroke="#b49977" stroke-width="1.51"/><path d="M-31,273L-42,303L-13,294Z" fill="#696846" stroke="#696846" stroke-width="1.51"/><path d="M-34,61L-32,97L-16,84Z" fill="#b58a4f" stroke="#b58a4f" stroke-width="1.51"/><path d="M-40,161L-31,189L-19,170Z" fill="#b39777" stroke="#b39777" stroke-width="1.51"/><path d="M-40,161L-33,142L-32,97Z" fill="#b99571" stroke="#b99571" stroke-width="1.51"/><path d="M-42,303L-31,273L-30,231Z" fill="#717250" stroke="#717250" stroke-width="1.51"/><path d="M-31,189L-40,161L-30,231Z" fill="#a79373" stroke="#a79373" stroke-width="1.51"/><path d="M-40,161L-42,303L-30,231Z" fill="#8a8664" stroke="#8a8664" stroke-width="1.51"/><path d="M-38,-33L-45,22L-30,-7Z" fill="#854f0e" stroke="#854f0e" stroke-width="1.51"/><path d="M-34,61L-45,22L-32,97Z" fill="#a67b3d" stroke="#a67b3d" stroke-width="1.51"/><path d="M-45,22L-40,161L-32,97Z" fill="#b08a57" stroke="#b08a57" stroke-width="1.51"/><path d="M-45,22L-42,303L-40,161Z" fill="#af9377" stroke="#af9377" stroke-width="1.51"/></svg>