<svg xmlns="http://www.w3.org/2000/svg" width="300" height="300"><path d="M29,345L-39,345L66,349Z" fill="#874e62" stroke="#874e62" stroke-width="1.51"/><path d="M180,338L135,338L207,341Z" fill="#8397bc" stroke="#8397bc" stroke-width="1.51"/><path d="M135,338L66,349L207,341Z" fill="#8f94b3" stroke="#8f94b3" stroke-width="1.51"/><path d="M53,-54L105,-45L215,-42Z" fill="#c17c78" stroke="#c17c78" stroke-width="1.51"/><path d="M207,341L66,349L235,342Z" fill="#8394b7" stroke="#8394b7" stroke-width="1.51"/><path d="M235,342L66,349L307,343Z" fill="#708cb2" stroke="#708cb2" stroke-width="1.51"/><path d="M313,109L295,134L318,164Z" fill="#9eaccc" stroke="#9eaccc" stroke-width="1.51"/><path d="M307,205L318,249L342,245Z" fill="#6191c1" stroke="#6191c1" stroke-width="1.51"/><path d="M342,245L337,270L343,297Z" fill="#346fa4" stroke="#346fa4" stroke-width="1.51"/><path d="M343,297L313,320L343,333Z" fill="#1d5c9e" stroke="#1d5c9e" stroke-width="1.51"/><path d="M343,-14L306,-10L344,31Z" fill="#8a4e68" stroke="#8a4e68" stroke-width="1.51"/><path d="M36,-55L53,-54L348,-52Z" fill="#bb8081" stroke="#bb8081" stroke-width="1.51"/><path d="M215,-42L233,-41L348,-52Z" fill="#865e71" stroke="#865e71" stroke-width="1.51"/><path d="M53,-54L215,-42L348,-52Z" fill="#a8777e" stroke="#a8777e" stroke-width="1.51"/><path d="M284,-35L317,-37L348,-52Z" fill="#754465" stroke="#754465" stroke-width="1.51"/><path d="M233,-41L284,-35L348,-52Z" fill="#7d536c" stroke="#7d536c" stroke-width="1.51"/><path d="M317,-37L343,-14L348,-52Z" fill="#713957" stroke="#713957" stroke-width="1.51"/><path d="M343,-14L344,31L348,-52Z" fill="#7d3c56" stroke="#7d3c56" stroke-width="1.51"/><path d="M330,90L313,109L352,126Z" fill="#9994ae" stroke="#9994ae" stroke-width="1.51"/><path d="M318,164L344,163L352,126Z" fill="#8e9cbe" stroke="#8e9cbe" stroke-width="1.51"/><path d="M313,109L318,164L352,126Z" fill="#979fbf" stroke="#979fbf" stroke-width="1.51"/><path d="M334,75L330,90L352,126Z" fill="#96889f" stroke="#96889f" stroke-width="1.51"/><path d="M344,31L334,75L352,126Z" fill="#947a8b" stroke="#947a8b" stroke-width="1.51"/><path d="M348,-52L344,31L352,126Z" fill="#8a586a" stroke="#8a586a" stroke-width="1.51"/><path d="M307,205L342,245L352,210Z" fill="#678eb9" stroke="#678eb9" stroke-width="1.51"/><path d="M344,163L318,164L352,210Z" fill="#8197bc" stroke="#8197bc" stroke-width="1.51"/><path d="M318,164L307,205L352,210Z" fill="#809dc7" stroke="#809dc7" stroke-width="1.51"/><path d="M343,297L343,333L352,210Z" fill="#29679c" stroke="#29679c" stroke-width="1.51"/><path d="M352,126L344,163L352,210Z" fill="#8291b2" stroke="#8291b2" stroke-width="1.51"/><path d="M342,245L343,297L352,210Z" fill="#4877a6" stroke="#4877a6" stroke-width="1.51"/><path d="M296,59L334,75L344,31Z" fill="#9c778c" stroke="#9c778c" stroke-width="1.51"/><path d="M295,39L296,59L344,31Z" fill="#9f778b" stroke="#9f778b" stroke-width="1.51"/><path d="M318,249L337,270L342,245Z" fill="#487eb1" stroke="#487eb1" stroke-width="1.51"/><path d="M337,270L310,270L343,297Z" fill="#2f72ab" stroke="#2f72ab" stroke-width="1.51"/><path d="M306,-10L295,39L344,31Z" fill="#99647c" stroke="#99647c" stroke-width="1.51"/><path d="M310,270L313,320L343,297Z" fill="#2b6fae" stroke="#2b6fae" stroke-width="1.51"/><path d="M317,-37L306,-10L343,-14Z" fill="#874766" stroke="#874766" stroke-width="1.51"/><path d="M313,320L307,343L343,333Z" fill="#1c5a9c" stroke="#1c5a9c" stroke-width="1.51"/><path d="M276,333L235,342L307,343Z" fill="#326fa5" stroke="#326fa5" stroke-width="1.51"/><path d="M318,249L310,270L337,270Z" fill="#4381b8" stroke="#4381b8" stroke-width="1.51"/><path d="M282,14L295,39L306,-10Z" fill="#9e6c7e" stroke="#9e6c7e" stroke-width="1.51"/><path d="M296,59L330,90L334,75Z" fill="#a1889e" stroke="#a1889e" stroke-width="1.51"/><path d="M296,59L313,109L330,90Z" fill="#a393aa" stroke="#a393aa" stroke-width="1.51"/><path d="M105,-45L145,-35L215,-42Z" fill="#c78686" stroke="#c78686" stroke-width="1.51"/><path d="M284,-1L282,14L306,-10Z" fill="#9b6679" stroke="#9b6679" stroke-width="1.51"/><path d="M279,214L279,238L307,205Z" fill="#77aad0" stroke="#77aad0" stroke-width="1.51"/><path d="M310,270L279,284L313,320Z" fill="#357db9" stroke="#357db9" stroke-width="1.51"/><path d="M296,59L271,73L313,109Z" fill="#a99bab" stroke="#a99bab" stroke-width="1.51"/><path d="M271,73L265,88L313,109Z" fill="#aca7b5" stroke="#aca7b5" stroke-width="1.51"/><path d="M284,-35L306,-10L317,-37Z" fill="#88506c" stroke="#88506c" stroke-width="1.51"/><path d="M279,238L310,270L318,249Z" fill="#5592c4" stroke="#5592c4" stroke-width="1.51"/><path d="M307,205L279,238L318,249Z" fill="#699fca" stroke="#699fca" stroke-width="1.51"/><path d="M295,134L283,139L318,164Z" fill="#9fb5d5" stroke="#9fb5d5" stroke-width="1.51"/><path d="M283,139L274,157L318,164Z" fill="#9fbad8" stroke="#9fbad8" stroke-width="1.51"/><path d="M274,157L307,205L318,164Z" fill="#92b0d5" stroke="#92b0d5" stroke-width="1.51"/><path d="M274,157L279,214L307,205Z" fill="#8db5d7" stroke="#8db5d7" stroke-width="1.51"/><path d="M276,333L307,343L313,320Z" fill="#2666a4" stroke="#2666a4" stroke-width="1.51"/><path d="M279,284L276,333L313,320Z" fill="#3178b6" stroke="#3178b6" stroke-width="1.51"/><path d="M265,88L295,134L313,109Z" fill="#a8afc3" stroke="#a8afc3" stroke-width="1.51"/><path d="M262,297L276,333L279,284Z" fill="#3e85bc" stroke="#3e85bc" stroke-width="1.51"/><path d="M279,238L279,284L310,270Z" fill="#4d92c4" stroke="#4d92c4" stroke-width="1.51"/><path d="M95,341L66,349L135,338Z" fill="#94869c" stroke="#94869c" stroke-width="1.51"/><path d="M284,-35L284,-1L306,-10Z" fill="#955b71" stroke="#955b71" stroke-width="1.51"/><path d="M265,88L283,139L295,134Z" fill="#a9b8cb" stroke="#a9b8cb" stroke-width="1.51"/><path d="M274,157L246,190L279,214Z" fill="#9bc2dd" stroke="#9bc2dd" stroke-width="1.51"/><path d="M265,88L242,107L283,139Z" fill="#b6bfcc" stroke="#b6bfcc" stroke-width="1.51"/><path d="M295,39L271,73L296,59Z" fill="#aa909a" stroke="#aa909a" stroke-width="1.51"/><path d="M282,14L271,73L295,39Z" fill="#a98791" stroke="#a98791" stroke-width="1.51"/><path d="M145,-35L176,-33L215,-42Z" fill="#c28485" stroke="#c28485" stroke-width="1.51"/><path d="M228,16L230,75L271,73Z" fill="#c5a8a5" stroke="#c5a8a5" stroke-width="1.51"/><path d="M279,238L241,277L279,284Z" fill="#589ec9" stroke="#589ec9" stroke-width="1.51"/><path d="M228,16L271,73L282,14Z" fill="#b48d93" stroke="#b48d93" stroke-width="1.51"/><path d="M235,-19L228,16L282,14Z" fill="#b48086" stroke="#b48086" stroke-width="1.51"/><path d="M242,107L239,121L283,139Z" fill="#bbc8d4" stroke="#bbc8d4" stroke-width="1.51"/><path d="M235,-19L282,14L284,-1Z" fill="#a5727d" stroke="#a5727d" stroke-width="1.51"/><path d="M235,-19L284,-1L284,-35Z" fill="#9f6776" stroke="#9f6776" stroke-width="1.51"/><path d="M233,-41L235,-19L284,-35Z" fill="#9d6c78" stroke="#9d6c78" stroke-width="1.51"/><path d="M239,121L274,157L283,139Z" fill="#afc7da" stroke="#afc7da" stroke-width="1.51"/><path d="M262,297L241,314L276,333Z" fill="#4987be" stroke="#4987be" stroke-width="1.51"/><path d="M279,214L236,226L279,238Z" fill="#7fb5d6" stroke="#7fb5d6" stroke-width="1.51"/><path d="M246,190L236,226L279,214Z" fill="#95c2dd" stroke="#95c2dd" stroke-width="1.51"/><path d="M236,226L241,277L279,238Z" fill="#78b2d4" stroke="#78b2d4" stroke-width="1.51"/><path d="M241,277L262,297L279,284Z" fill="#5196c6" stroke="#5196c6" stroke-width="1.51"/><path d="M241,314L235,342L276,333Z" fill="#4d82b4" stroke="#4d82b4" stroke-width="1.51"/><path d="M225,168L246,190L274,157Z" fill="#b1d1e4" stroke="#b1d1e4" stroke-width="1.51"/><path d="M239,121L225,168L274,157Z" fill="#bdd6e6" stroke="#bdd6e6" stroke-width="1.51"/><path d="M230,75L265,88L271,73Z" fill="#beb1b3" stroke="#beb1b3" stroke-width="1.51"/><path d="M230,75L242,107L265,88Z" fill="#c4bec0" stroke="#c4bec0" stroke-width="1.51"/><path d="M241,277L241,314L262,297Z" fill="#5b98c7" stroke="#5b98c7" stroke-width="1.51"/><path d="M228,16L191,65L230,75Z" fill="#d6b1aa" stroke="#d6b1aa" stroke-width="1.51"/><path d="M205,232L213,275L236,226Z" fill="#96c4de" stroke="#96c4de" stroke-width="1.51"/><path d="M209,130L225,168L239,121Z" fill="#cfdee7" stroke="#cfdee7" stroke-width="1.51"/><path d="M213,275L241,314L241,277Z" fill="#6ca5ce" stroke="#6ca5ce" stroke-width="1.51"/><path d="M236,226L213,275L241,277Z" fill="#80b7d7" stroke="#80b7d7" stroke-width="1.51"/><path d="M214,212L236,226L246,190Z" fill="#a7cfe4" stroke="#a7cfe4" stroke-width="1.51"/><path d="M225,168L214,212L246,190Z" fill="#b7d7e8" stroke="#b7d7e8" stroke-width="1.51"/><path d="M201,16L191,65L228,16Z" fill="#d7a59e" stroke="#d7a59e" stroke-width="1.51"/><path d="M213,275L196,305L241,314Z" fill="#76a5ce" stroke="#76a5ce" stroke-width="1.51"/><path d="M207,341L235,342L241,314Z" fill="#618cb9" stroke="#618cb9" stroke-width="1.51"/><path d="M230,75L196,107L242,107Z" fill="#d5cdcb" stroke="#d5cdcb" stroke-width="1.51"/><path d="M209,130L239,121L242,107Z" fill="#cdd6da" stroke="#cdd6da" stroke-width="1.51"/><path d="M196,107L209,130L242,107Z" fill="#d8d9db" stroke="#d8d9db" stroke-width="1.51"/><path d="M196,305L207,341L241,314Z" fill="#7199c7" stroke="#7199c7" stroke-width="1.51"/><path d="M192,-8L228,16L235,-19Z" fill="#c58989" stroke="#c58989" stroke-width="1.51"/><path d="M192,-8L201,16L228,16Z" fill="#d09491" stroke="#d09491" stroke-width="1.51"/><path d="M233,-41L215,-42L235,-19Z" fill="#aa767e" stroke="#aa767e" stroke-width="1.51"/><path d="M214,212L205,232L236,226Z" fill="#a7cfe4" stroke="#a7cfe4" stroke-width="1.51"/><path d="M215,-42L192,-8L235,-19Z" fill="#be7f83" stroke="#be7f83" stroke-width="1.51"/><path d="M209,130L194,156L225,168Z" fill="#d7e7f0" stroke="#d7e7f0" stroke-width="1.51"/><path d="M194,156L214,212L225,168Z" fill="#c9e0ed" stroke="#c9e0ed" stroke-width="1.51"/><path d="M191,65L196,107L230,75Z" fill="#e0cbc3" stroke="#e0cbc3" stroke-width="1.51"/><path d="M194,156L171,176L214,212Z" fill="#d6e7f1" stroke="#d6e7f1" stroke-width="1.51"/><path d="M191,65L178,92L196,107Z" fill="#ead4cb" stroke="#ead4cb" stroke-width="1.51"/><path d="M175,21L191,65L201,16Z" fill="#e2aca2" stroke="#e2aca2" stroke-width="1.51"/><path d="M196,305L180,338L207,341Z" fill="#7e9bc4" stroke="#7e9bc4" stroke-width="1.51"/><path d="M205,232L167,267L213,275Z" fill="#9dc5df" stroke="#9dc5df" stroke-width="1.51"/><path d="M171,176L169,207L214,212Z" fill="#d0e4ef" stroke="#d0e4ef" stroke-width="1.51"/><path d="M176,-33L192,-8L215,-42Z" fill="#c58485" stroke="#c58485" stroke-width="1.51"/><path d="M169,207L205,232L214,212Z" fill="#bcdaea" stroke="#bcdaea" stroke-width="1.51"/><path d="M169,294L196,305L213,275Z" fill="#8bb2d6" stroke="#8bb2d6" stroke-width="1.51"/><path d="M167,267L169,294L213,275Z" fill="#94bbda" stroke="#94bbda" stroke-width="1.51"/><path d="M196,107L169,143L209,130Z" fill="#e7e6e6" stroke="#e7e6e6" stroke-width="1.51"/><path d="M169,143L194,156L209,130Z" fill="#e5ecf0" stroke="#e5ecf0" stroke-width="1.51"/><path d="M156,250L167,267L205,232Z" fill="#aecfe4" stroke="#aecfe4" stroke-width="1.51"/><path d="M169,207L156,250L205,232Z" fill="#bddaea" stroke="#bddaea" stroke-width="1.51"/><path d="M192,-8L175,21L201,16Z" fill="#da9b94" stroke="#da9b94" stroke-width="1.51"/><path d="M175,21L156,62L191,65Z" fill="#ecbcae" stroke="#ecbcae" stroke-width="1.51"/><path d="M176,-33L169,-19L192,-8Z" fill="#d38a87" stroke="#d38a87" stroke-width="1.51"/><path d="M169,294L180,338L196,305Z" fill="#8ba8d1" stroke="#8ba8d1" stroke-width="1.51"/><path d="M178,92L169,143L196,107Z" fill="#ede5e0" stroke="#ede5e0" stroke-width="1.51"/><path d="M142,119L169,143L178,92Z" fill="#f4eae3" stroke="#f4eae3" stroke-width="1.51"/><path d="M143,109L142,119L178,92Z" fill="#f9e7dd" stroke="#f9e7dd" stroke-width="1.51"/><path d="M169,143L171,176L194,156Z" fill="#e7eff4" stroke="#e7eff4" stroke-width="1.51"/><path d="M156,62L178,92L191,65Z" fill="#f0cdbf" stroke="#f0cdbf" stroke-width="1.51"/><path d="M169,-19L175,21L192,-8Z" fill="#da968f" stroke="#da968f" stroke-width="1.51"/><path d="M145,228L156,250L169,207Z" fill="#c7deeb" stroke="#c7deeb" stroke-width="1.51"/><path d="M169,-19L129,-13L175,21Z" fill="#e29991" stroke="#e29991" stroke-width="1.51"/><path d="M156,62L144,74L178,92Z" fill="#f6d2c3" stroke="#f6d2c3" stroke-width="1.51"/><path d="M169,294L139,306L180,338Z" fill="#94acd2" stroke="#94acd2" stroke-width="1.51"/><path d="M139,306L135,338L180,338Z" fill="#94a3c9" stroke="#94a3c9" stroke-width="1.51"/><path d="M145,178L169,207L171,176Z" fill="#e2ecf3" stroke="#e2ecf3" stroke-width="1.51"/><path d="M127,39L156,62L175,21Z" fill="#f2b9aa" stroke="#f2b9aa" stroke-width="1.51"/><path d="M144,74L143,109L178,92Z" fill="#f9ddd1" stroke="#f9ddd1" stroke-width="1.51"/><path d="M169,143L145,178L171,176Z" fill="#ebf1f5" stroke="#ebf1f5" stroke-width="1.51"/><path d="M145,-35L169,-19L176,-33Z" fill="#d08987" stroke="#d08987" stroke-width="1.51"/><path d="M129,-13L127,39L175,21Z" fill="#eba597" stroke="#eba597" stroke-width="1.51"/><path d="M167,267L136,272L169,294Z" fill="#a1c1dc" stroke="#a1c1dc" stroke-width="1.51"/><path d="M145,-35L129,-13L169,-19Z" fill="#db8e88" stroke="#db8e88" stroke-width="1.51"/><path d="M145,178L128,197L169,207Z" fill="#e3ecf2" stroke="#e3ecf2" stroke-width="1.51"/><path d="M128,197L145,228L169,207Z" fill="#d8e6ee" stroke="#d8e6ee" stroke-width="1.51"/><path d="M136,272L139,306L169,294Z" fill="#a1bbd8" stroke="#a1bbd8" stroke-width="1.51"/><path d="M142,119L145,178L169,143Z" fill="#f7f6f5" stroke="#f7f6f5" stroke-width="1.51"/><path d="M156,250L136,272L167,267Z" fill="#aecbe1" stroke="#aecbe1" stroke-width="1.51"/><path d="M142,119L106,121L145,178Z" fill="#faede6" stroke="#faede6" stroke-width="1.51"/><path d="M145,228L136,272L156,250Z" fill="#bad3e3" stroke="#bad3e3" stroke-width="1.51"/><path d="M127,39L144,74L156,62Z" fill="#f8c5b2" stroke="#f8c5b2" stroke-width="1.51"/><path d="M98,227L102,270L136,272Z" fill="#bbc4ce" stroke="#bbc4ce" stroke-width="1.51"/><path d="M108,311L135,338L139,306Z" fill="#9da4c5" stroke="#9da4c5" stroke-width="1.51"/><path d="M87,93L106,121L143,109Z" fill="#fddcc9" stroke="#fddcc9" stroke-width="1.51"/><path d="M127,39L93,55L144,74Z" fill="#f7bca4" stroke="#f7bca4" stroke-width="1.51"/><path d="M87,93L143,109L144,74Z" fill="#fcd6c3" stroke="#fcd6c3" stroke-width="1.51"/><path d="M128,197L102,215L145,228Z" fill="#d8dee1" stroke="#d8dee1" stroke-width="1.51"/><path d="M102,215L98,227L145,228Z" fill="#d2d7d9" stroke="#d2d7d9" stroke-width="1.51"/><path d="M98,227L136,272L145,228Z" fill="#c3d1db" stroke="#c3d1db" stroke-width="1.51"/><path d="M85,171L128,197L145,178Z" fill="#ece6e3" stroke="#ece6e3" stroke-width="1.51"/><path d="M106,121L85,171L145,178Z" fill="#f8e9e1" stroke="#f8e9e1" stroke-width="1.51"/><path d="M105,-45L129,-13L145,-35Z" fill="#d2837b" stroke="#d2837b" stroke-width="1.51"/><path d="M136,272L108,311L139,306Z" fill="#a3b1cb" stroke="#a3b1cb" stroke-width="1.51"/><path d="M93,55L87,93L144,74Z" fill="#fac5ab" stroke="#fac5ab" stroke-width="1.51"/><path d="M105,40L127,39L129,-13Z" fill="#eda18d" stroke="#eda18d" stroke-width="1.51"/><path d="M106,121L142,119L143,109Z" fill="#fce5d8" stroke="#fce5d8" stroke-width="1.51"/><path d="M105,40L93,55L127,39Z" fill="#f4af95" stroke="#f4af95" stroke-width="1.51"/><path d="M102,270L108,311L136,272Z" fill="#a9b4c7" stroke="#a9b4c7" stroke-width="1.51"/><path d="M89,-18L105,40L129,-13Z" fill="#e6907e" stroke="#e6907e" stroke-width="1.51"/><path d="M108,311L95,341L135,338Z" fill="#9997b2" stroke="#9997b2" stroke-width="1.51"/><path d="M85,171L102,215L128,197Z" fill="#e8ddd8" stroke="#e8ddd8" stroke-width="1.51"/><path d="M105,-45L89,-18L129,-13Z" fill="#d67f72" stroke="#d67f72" stroke-width="1.51"/><path d="M98,227L53,264L102,270Z" fill="#bfb5b9" stroke="#bfb5b9" stroke-width="1.51"/><path d="M85,171L72,196L102,215Z" fill="#e8d1c9" stroke="#e8d1c9" stroke-width="1.51"/><path d="M89,-18L59,29L105,40Z" fill="#e78b72" stroke="#e78b72" stroke-width="1.51"/><path d="M61,154L85,171L106,121Z" fill="#fad9c9" stroke="#fad9c9" stroke-width="1.51"/><path d="M55,135L61,154L106,121Z" fill="#facebb" stroke="#facebb" stroke-width="1.51"/><path d="M102,270L66,306L108,311Z" fill="#a8a1b3" stroke="#a8a1b3" stroke-width="1.51"/><path d="M66,306L95,341L108,311Z" fill="#a191ab" stroke="#a191ab" stroke-width="1.51"/><path d="M55,-6L59,29L89,-18Z" fill="#dd755e" stroke="#dd755e" stroke-width="1.51"/><path d="M59,29L69,52L105,40Z" fill="#ee987b" stroke="#ee987b" stroke-width="1.51"/><path d="M87,93L64,106L106,121Z" fill="#fbcbb3" stroke="#fbcbb3" stroke-width="1.51"/><path d="M64,106L55,135L106,121Z" fill="#fbcab2" stroke="#fbcab2" stroke-width="1.51"/><path d="M51,232L53,264L98,227Z" fill="#c8b2af" stroke="#c8b2af" stroke-width="1.51"/><path d="M69,52L93,55L105,40Z" fill="#f2a789" stroke="#f2a789" stroke-width="1.51"/><path d="M53,-54L89,-18L105,-45Z" fill="#c46a5d" stroke="#c46a5d" stroke-width="1.51"/><path d="M53,264L66,306L102,270Z" fill="#ae9fa9" stroke="#ae9fa9" stroke-width="1.51"/><path d="M72,196L98,227L102,215Z" fill="#dccdc8" stroke="#dccdc8" stroke-width="1.51"/><path d="M69,52L87,93L93,55Z" fill="#f7b190" stroke="#f7b190" stroke-width="1.51"/><path d="M66,306L66,349L95,341Z" fill="#9a8094" stroke="#9a8094" stroke-width="1.51"/><path d="M72,196L51,232L98,227Z" fill="#d7c1b9" stroke="#d7c1b9" stroke-width="1.51"/><path d="M69,52L64,106L87,93Z" fill="#f8b596" stroke="#f8b596" stroke-width="1.51"/><path d="M53,-54L55,-6L89,-18Z" fill="#cd6353" stroke="#cd6353" stroke-width="1.51"/><path d="M61,154L72,196L85,171Z" fill="#f0cebf" stroke="#f0cebf" stroke-width="1.51"/><path d="M53,264L27,274L66,306Z" fill="#aa8c97" stroke="#aa8c97" stroke-width="1.51"/><path d="M66,306L29,345L66,349Z" fill="#977083" stroke="#977083" stroke-width="1.51"/><path d="M36,107L64,106L69,52Z" fill="#f5ac8d" stroke="#f5ac8d" stroke-width="1.51"/><path d="M16,63L36,107L69,52Z" fill="#ed9578" stroke="#ed9578" stroke-width="1.51"/><path d="M26,206L51,232L72,196Z" fill="#d8b1a9" stroke="#d8b1a9" stroke-width="1.51"/><path d="M35,168L26,206L72,196Z" fill="#e4b5a9" stroke="#e4b5a9" stroke-width="1.51"/><path d="M61,154L35,168L72,196Z" fill="#eec1b3" stroke="#eec1b3" stroke-width="1.51"/><path d="M53,-54L27,-14L55,-6Z" fill="#c75247" stroke="#c75247" stroke-width="1.51"/><path d="M17,316L29,345L66,306Z" fill="#996b82" stroke="#996b82" stroke-width="1.51"/><path d="M59,29L16,63L69,52Z" fill="#e8886b" stroke="#e8886b" stroke-width="1.51"/><path d="M36,-55L27,-14L53,-54Z" fill="#b44741" stroke="#b44741" stroke-width="1.51"/><path d="M36,107L55,135L64,106Z" fill="#f5b79e" stroke="#f5b79e" stroke-width="1.51"/><path d="M27,274L17,316L66,306Z" fill="#a2798a" stroke="#a2798a" stroke-width="1.51"/><path d="M55,-6L24,23L59,29Z" fill="#db6d57" stroke="#db6d57" stroke-width="1.51"/><path d="M24,23L16,63L59,29Z" fill="#df745b" stroke="#df745b" stroke-width="1.51"/><path d="M36,107L29,123L55,135Z" fill="#f3b09a" stroke="#f3b09a" stroke-width="1.51"/><path d="M55,135L35,168L61,154Z" fill="#f5c1b1" stroke="#f5c1b1" stroke-width="1.51"/><path d="M-38,-33L-5,-33L36,-55Z" fill="#a4232e" stroke="#a4232e" stroke-width="1.51"/><path d="M26,206L25,229L51,232Z" fill="#cea19c" stroke="#cea19c" stroke-width="1.51"/><path d="M51,232L25,229L53,264Z" fill="#c3a09e" stroke="#c3a09e" stroke-width="1.51"/><path d="M25,229L27,274L53,264Z" fill="#b79194" stroke="#b79194" stroke-width="1.51"/><path d="M27,-14L24,23L55,-6Z" fill="#d15a4a" stroke="#d15a4a" stroke-width="1.51"/><path d="M29,123L35,168L55,135Z" fill="#f3b6a5" stroke="#f3b6a5" stroke-width="1.51"/><path d="M25,229L-4,273L27,274Z" fill="#b08288" stroke="#b08288" stroke-width="1.51"/><path d="M2,331L-39,345L29,345Z" fill="#83445e" stroke="#83445e" stroke-width="1.51"/><path d="M-19,191L26,206L35,168Z" fill="#dc9f97" stroke="#dc9f97" stroke-width="1.51"/><path d="M-19,170L-19,191L35,168Z" fill="#dc9790" stroke="#dc9790" stroke-width="1.51"/><path d="M29,123L-9,142L35,168Z" fill="#eca698" stroke="#eca698" stroke-width="1.51"/><path d="M-5,-33L27,-14L36,-55Z" fill="#b33838" stroke="#b33838" stroke-width="1.51"/><path d="M-16,84L29,123L36,107Z" fill="#ea9782" stroke="#ea9782" stroke-width="1.51"/><path d="M16,63L-16,84L36,107Z" fill="#e58770" stroke="#e58770" stroke-width="1.51"/><path d="M-13,294L17,316L27,274Z" fill="#9d6a7d" stroke="#9d6a7d" stroke-width="1.51"/><path d="M-9,142L-19,170L35,168Z" fill="#e39c93" stroke="#e39c93" stroke-width="1.51"/><path d="M-2,64L-16,84L16,63Z" fill="#dd765f" stroke="#dd765f" stroke-width="1.51"/><path d="M-9,23L-2,64L16,63Z" fill="#d76753" stroke="#d76753" stroke-width="1.51"/><path d="M-9,23L16,63L24,23Z" fill="#d5614f" stroke="#d5614f" stroke-width="1.51"/><path d="M-19,230L-4,273L25,229Z" fill="#b58186" stroke="#b58186" stroke-width="1.51"/><path d="M-9,23L24,23L27,-14Z" fill="#cd5043" stroke="#cd5043" stroke-width="1.51"/><path d="M-20,-4L-9,23L27,-14Z" fill="#c23d39" stroke="#c23d39" stroke-width="1.51"/><path d="M-4,273L-13,294L27,274Z" fill="#9f6e7d" stroke="#9f6e7d" stroke-width="1.51"/><path d="M17,316L2,331L29,345Z" fill="#8f576e" stroke="#8f576e" stroke-width="1.51"/><path d="M-16,84L-9,142L29,123Z" fill="#e59281" stroke="#e59281" stroke-width="1.51"/><path d="M-19,230L25,229L26,206Z" fill="#c7918f" stroke="#c7918f" stroke-width="1.51"/><path d="M-5,-33L-20,-4L27,-14Z" fill="#bb2e33" stroke="#bb2e33" stroke-width="1.51"/><path d="M-19,191L-19,230L26,206Z" fill="#ca8c8b" stroke="#ca8c8b" stroke-width="1.51"/><path d="M-16,84L-32,97L-9,142Z" fill="#dd8274" stroke="#dd8274" stroke-width="1.51"/><path d="M-13,294L2,331L17,316Z" fill="#935a74" stroke="#935a74" stroke-width="1.51"/><path d="M-32,97L-33,142L-9,142Z" fill="#d8867d" stroke="#d8867d" stroke-width="1.51"/><path d="M-19,230L-31,273L-4,273Z" fill="#a56c78" stroke="#a56c78" stroke-width="1.51"/><path d="M-9,23L-34,61L-2,64Z" fill="#d05a4b" stroke="#d05a4b" stroke-width="1.51"/><path d="M-13,294L-42,303L2,331Z" fill="#8e506c" stroke="#8e506c" stroke-width="1.51"/><path d="M-42,303L-39,345L2,331Z" fill="#7f4261" stroke="#7f4261" stroke-width="1.51"/><path d="M-30,231L-31,273L-19,230Z" fill="#a6717b" stroke="#a6717b" stroke-width="1.51"/><path d="M-30,-7L-20,-4L-5,-33Z" fill="#b31d2c" stroke="#b31d2c" stroke-width="1.51"/><path d="M-34,61L-16,84L-2,64Z" fill="#d66a58" stroke="#d66a58" stroke-width="1.51"/><path d="M-45,22L-34,61L-9,23Z" fill="#be4841" stroke="#be4841" stroke-width="1.51"/><path d="M-38,-33L-30,-7L-5,-33Z" fill="#a61429" stroke="#a61429" stroke-width="1.51"/><path d="M-31,273L-13,294L-4,273Z" fill="#996274" stroke="#996274" stroke-width="1.51"/><path d="M-33,142L-19,170L-9,142Z" fill="#dd8f8a" stroke="#dd8f8a" stroke-width="1.51"/><path d="M-30,231L-19,230L-19,191Z" fill="#bc7e82" stroke="#bc7e82" stroke-width="1.51"/><path d="M-31,189L-30,231L-19,191Z" fill="#c08184" stroke="#c08184" stroke-width="1.51"/><path d="M-20,-4L-45,22L-9,23Z" fill="#ba3736" stroke="#ba3736" stroke-width="1.51"/><path d="M-30,-7L-45,22L-20,-4Z" fill="#af2c31" stroke="#af2c31" stroke-width="1.51"/><path d="M-33,142L-40,161L-19,170Z" fill="#d08a87" stroke="#d08a87" stroke-width="1.51"/><path d="M-19,170L-31,189L-19,191Z" fill="#ce8887" stroke="#ce8887" stroke-width="1.51"/><path d="M-31,273L-42,303L-13,294Z" fill="#8a576e" stroke="#8a576e" stroke-width="1.51"/><path d="M-34,61L-32,97L-16,84Z" fill="#cf6d5e" stroke="#cf6d5e" stroke-width="1.51"/><path d="M-40,161L-31,189L-19,170Z" fill="#cb8786" stroke="#cb8786" stroke-width="1.51"/><path d="M-40,161L-33,142L-32,97Z" fill="#ce847e" stroke="#ce847e" stroke-width="1.51"/><path d="M-42,303L-31,273L-30,231Z" fill="#8e6072" stroke="#8e6072" stroke-width="1.51"/><path d="M-31,189L-40,161L-30,231Z" fill="#bf8284" stroke="#bf8284" stroke-width="1.51"/><path d="M-40,161L-42,303L-30,231Z" fill="#a4747c" stroke="#a4747c" stroke-width="1.51"/><path d="M-38,-33L-45,22L-30,-7Z" fill="#a5212d" stroke="#a5212d" stroke-width="1.51"/><path d="M-34,61L-45,22L-32,97Z" fill="#c05b4e" stroke="#c05b4e" stroke-width="1.51"/><path d="M-45,22L-40,161L-32,97Z" fill="#c67165" stroke="#c67165" stroke-width="1.51"/><path d="M-45,22L-42,303L-40,161Z" fill="#c28485" stroke="#c28485" stroke-width="1.51"/></svg>