<svg xmlns="http://www.w3.org/2000/svg" width="300" height="300"><path d="M29,345L-39,345L66,349Z" fill="#7f828f" stroke="#7f828f" stroke-width="1.51"/><path d="M180,338L135,338L207,341Z" fill="#2d6398" stroke="#2d6398" stroke-width="1.51"/><path d="M135,338L66,349L207,341Z" fill="#3d6c96" stroke="#3d6c96" stroke-width="1.51"/><path d="M53,-54L105,-45L215,-42Z" fill="#b6dfc8" stroke="#b6dfc8" stroke-width="1.51"/><path d="M207,341L66,349L235,342Z" fill="#2d6396" stroke="#2d6396" stroke-width="1.51"/><path d="M235,342L66,349L307,343Z" fill="#205994" stroke="#205994" stroke-width="1.51"/><path d="M313,109L295,134L318,164Z" fill="#4876ab" stroke="#4876ab" stroke-width="1.51"/><path d="M307,205L318,249L342,245Z" fill="#24509a" stroke="#24509a" stroke-width="1.51"/><path d="M342,245L337,270L343,297Z" fill="#1d3b87" stroke="#1d3b87" stroke-width="1.51"/><path d="M343,297L313,320L343,333Z" fill="#1c2c7f" stroke="#1c2c7f" stroke-width="1.51"/><path d="M343,-14L306,-10L344,31Z" fill="#8a8898" stroke="#8a8898" stroke-width="1.51"/><path d="M36,-55L53,-54L348,-52Z" fill="#aedbcc" stroke="#aedbcc" stroke-width="1.51"/><path d="M215,-42L233,-41L348,-52Z" fill="#9da5bb" stroke="#9da5bb" stroke-width="1.51"/><path d="M53,-54L215,-42L348,-52Z" fill="#a2c4c9" stroke="#a2c4c9" stroke-width="1.51"/><path d="M284,-35L317,-37L348,-52Z" fill="#9890ad" stroke="#9890ad" stroke-width="1.51"/><path d="M233,-41L284,-35L348,-52Z" fill="#9c9bb6" stroke="#9c9bb6" stroke-width="1.51"/><path d="M317,-37L343,-14L348,-52Z" fill="#8f8a9e" stroke="#8f8a9e" stroke-width="1.51"/><path d="M343,-14L344,31L348,-52Z" fill="#898691" stroke="#898691" stroke-width="1.51"/><path d="M330,90L313,109L352,126Z" fill="#50759b" stroke="#50759b" stroke-width="1.51"/><path d="M318,164L344,163L352,126Z" fill="#346b9a" stroke="#346b9a" stroke-width="1.51"/><path d="M313,109L318,164L352,126Z" fill="#43719f" stroke="#43719f" stroke-width="1.51"/><path d="M334,75L330,90L352,126Z" fill="#547596" stroke="#547596" stroke-width="1.51"/><path d="M344,31L334,75L352,126Z" fill="#617892" stroke="#617892" stroke-width="1.51"/><path d="M348,-52L344,31L352,126Z" fill="#78808e" stroke="#78808e" stroke-width="1.51"/><path d="M307,205L342,245L352,210Z" fill="#225396" stroke="#225396" stroke-width="1.51"/><path d="M344,163L318,164L352,210Z" fill="#2b6198" stroke="#2b6198" stroke-width="1.51"/><path d="M318,164L307,205L352,210Z" fill="#2a61a0" stroke="#2a61a0" stroke-width="1.51"/><path d="M343,297L343,333L352,210Z" fill="#1b3682" stroke="#1b3682" stroke-width="1.51"/><path d="M352,126L344,163L352,210Z" fill="#2c6393" stroke="#2c6393" stroke-width="1.51"/><path d="M342,245L343,297L352,210Z" fill="#1b4288" stroke="#1b4288" stroke-width="1.51"/><path d="M296,59L334,75L344,31Z" fill="#77839d" stroke="#77839d" stroke-width="1.51"/><path d="M295,39L296,59L344,31Z" fill="#8289a4" stroke="#8289a4" stroke-width="1.51"/><path d="M318,249L337,270L342,245Z" fill="#1e438f" stroke="#1e438f" stroke-width="1.51"/><path d="M337,270L310,270L343,297Z" fill="#203a8c" stroke="#203a8c" stroke-width="1.51"/><path d="M306,-10L295,39L344,31Z" fill="#8a8ba2" stroke="#8a8ba2" stroke-width="1.51"/><path d="M310,270L313,320L343,297Z" fill="#22358e" stroke="#22358e" stroke-width="1.51"/><path d="M317,-37L306,-10L343,-14Z" fill="#938ca2" stroke="#938ca2" stroke-width="1.51"/><path d="M313,320L307,343L343,333Z" fill="#1b2b7d" stroke="#1b2b7d" stroke-width="1.51"/><path d="M276,333L235,342L307,343Z" fill="#1d3b88" stroke="#1d3b88" stroke-width="1.51"/><path d="M318,249L310,270L337,270Z" fill="#224394" stroke="#224394" stroke-width="1.51"/><path d="M282,14L295,39L306,-10Z" fill="#8f93a9" stroke="#8f93a9" stroke-width="1.51"/><path d="M296,59L330,90L334,75Z" fill="#6a7fa0" stroke="#6a7fa0" stroke-width="1.51"/><path d="M296,59L313,109L330,90Z" fill="#647fa5" stroke="#647fa5" stroke-width="1.51"/><path d="M105,-45L145,-35L215,-42Z" fill="#aad7c8" stroke="#aad7c8" stroke-width="1.51"/><path d="M284,-1L282,14L306,-10Z" fill="#9497a9" stroke="#9497a9" stroke-width="1.51"/><path d="M279,214L279,238L307,205Z" fill="#2962aa" stroke="#2962aa" stroke-width="1.51"/><path d="M310,270L279,284L313,320Z" fill="#263e99" stroke="#263e99" stroke-width="1.51"/><path d="M296,59L271,73L313,109Z" fill="#6b88ab" stroke="#6b88ab" stroke-width="1.51"/><path d="M271,73L265,88L313,109Z" fill="#638aad" stroke="#638aad" stroke-width="1.51"/><path d="M284,-35L306,-10L317,-37Z" fill="#9993ae" stroke="#9993ae" stroke-width="1.51"/><path d="M279,238L310,270L318,249Z" fill="#264da0" stroke="#264da0" stroke-width="1.51"/><path d="M307,205L279,238L318,249Z" fill="#2957a5" stroke="#2957a5" stroke-width="1.51"/><path d="M295,134L283,139L318,164Z" fill="#4178ae" stroke="#4178ae" stroke-width="1.51"/><path d="M283,139L274,157L318,164Z" fill="#3c79af" stroke="#3c79af" stroke-width="1.51"/><path d="M274,157L307,205L318,164Z" fill="#366ead" stroke="#366ead" stroke-width="1.51"/><path d="M274,157L279,214L307,205Z" fill="#2e6eaf" stroke="#2e6eaf" stroke-width="1.51"/><path d="M276,333L307,343L313,320Z" fill="#1f3287" stroke="#1f3287" stroke-width="1.51"/><path d="M279,284L276,333L313,320Z" fill="#243b94" stroke="#243b94" stroke-width="1.51"/><path d="M265,88L295,134L313,109Z" fill="#5682ad" stroke="#5682ad" stroke-width="1.51"/><path d="M262,297L276,333L279,284Z" fill="#26439b" stroke="#26439b" stroke-width="1.51"/><path d="M279,238L279,284L310,270Z" fill="#264da0" stroke="#264da0" stroke-width="1.51"/><path d="M95,341L66,349L135,338Z" fill="#517393" stroke="#517393" stroke-width="1.51"/><path d="M284,-35L284,-1L306,-10Z" fill="#9997ac" stroke="#9997ac" stroke-width="1.51"/><path d="M265,88L283,139L295,134Z" fill="#5084af" stroke="#5084af" stroke-width="1.51"/><path d="M274,157L246,190L279,214Z" fill="#2c78b3" stroke="#2c78b3" stroke-width="1.51"/><path d="M265,88L242,107L283,139Z" fill="#548db2" stroke="#548db2" stroke-width="1.51"/><path d="M295,39L271,73L296,59Z" fill="#7c8fab" stroke="#7c8fab" stroke-width="1.51"/><path d="M282,14L271,73L295,39Z" fill="#8595ab" stroke="#8595ab" stroke-width="1.51"/><path d="M145,-35L176,-33L215,-42Z" fill="#a5cec6" stroke="#a5cec6" stroke-width="1.51"/><path d="M228,16L230,75L271,73Z" fill="#7ea4b3" stroke="#7ea4b3" stroke-width="1.51"/><path d="M279,238L241,277L279,284Z" fill="#2455a4" stroke="#2455a4" stroke-width="1.51"/><path d="M228,16L271,73L282,14Z" fill="#889faf" stroke="#889faf" stroke-width="1.51"/><path d="M235,-19L228,16L282,14Z" fill="#95a9b1" stroke="#95a9b1" stroke-width="1.51"/><path d="M242,107L239,121L283,139Z" fill="#4c8fb4" stroke="#4c8fb4" stroke-width="1.51"/><path d="M235,-19L282,14L284,-1Z" fill="#96a0ad" stroke="#96a0ad" stroke-width="1.51"/><path d="M235,-19L284,-1L284,-35Z" fill="#9aa2b1" stroke="#9aa2b1" stroke-width="1.51"/><path d="M233,-41L235,-19L284,-35Z" fill="#9cabb9" stroke="#9cabb9" stroke-width="1.51"/><path d="M239,121L274,157L283,139Z" fill="#4287b3" stroke="#4287b3" stroke-width="1.51"/><path d="M262,297L241,314L276,333Z" fill="#244698" stroke="#244698" stroke-width="1.51"/><path d="M279,214L236,226L279,238Z" fill="#2568ad" stroke="#2568ad" stroke-width="1.51"/><path d="M246,190L236,226L279,214Z" fill="#2374b3" stroke="#2374b3" stroke-width="1.51"/><path d="M236,226L241,277L279,238Z" fill="#2363aa" stroke="#2363aa" stroke-width="1.51"/><path d="M241,277L262,297L279,284Z" fill="#2550a1" stroke="#2550a1" stroke-width="1.51"/><path d="M241,314L235,342L276,333Z" fill="#204692" stroke="#204692" stroke-width="1.51"/><path d="M225,168L246,190L274,157Z" fill="#3085b7" stroke="#3085b7" stroke-width="1.51"/><path d="M239,121L225,168L274,157Z" fill="#388eb8" stroke="#388eb8" stroke-width="1.51"/><path d="M230,75L265,88L271,73Z" fill="#6b98b2" stroke="#6b98b2" stroke-width="1.51"/><path d="M230,75L242,107L265,88Z" fill="#629ab4" stroke="#629ab4" stroke-width="1.51"/><path d="M241,277L241,314L262,297Z" fill="#2751a2" stroke="#2751a2" stroke-width="1.51"/><path d="M228,16L191,65L230,75Z" fill="#81b2b9" stroke="#81b2b9" stroke-width="1.51"/><path d="M205,232L213,275L236,226Z" fill="#2375b3" stroke="#2375b3" stroke-width="1.51"/><path d="M209,130L225,168L239,121Z" fill="#3f9abc" stroke="#3f9abc" stroke-width="1.51"/><path d="M213,275L241,314L241,277Z" fill="#285ba7" stroke="#285ba7" stroke-width="1.51"/><path d="M236,226L213,275L241,277Z" fill="#2468ad" stroke="#2468ad" stroke-width="1.51"/><path d="M214,212L236,226L246,190Z" fill="#227fb8" stroke="#227fb8" stroke-width="1.51"/><path d="M225,168L214,212L246,190Z" fill="#2789bb" stroke="#2789bb" stroke-width="1.51"/><path d="M201,16L191,65L228,16Z" fill="#8cbbba" stroke="#8cbbba" stroke-width="1.51"/><path d="M213,275L196,305L241,314Z" fill="#2a5fa9" stroke="#2a5fa9" stroke-width="1.51"/><path d="M207,341L235,342L241,314Z" fill="#225096" stroke="#225096" stroke-width="1.51"/><path d="M230,75L196,107L242,107Z" fill="#5ca4ba" stroke="#5ca4ba" stroke-width="1.51"/><path d="M209,130L239,121L242,107Z" fill="#4d9cb9" stroke="#4d9cb9" stroke-width="1.51"/><path d="M196,107L209,130L242,107Z" fill="#50a4bc" stroke="#50a4bc" stroke-width="1.51"/><path d="M196,305L207,341L241,314Z" fill="#27599f" stroke="#27599f" stroke-width="1.51"/><path d="M192,-8L228,16L235,-19Z" fill="#9abab7" stroke="#9abab7" stroke-width="1.51"/><path d="M192,-8L201,16L228,16Z" fill="#96bfba" stroke="#96bfba" stroke-width="1.51"/><path d="M233,-41L215,-42L235,-19Z" fill="#9eb7bf" stroke="#9eb7bf" stroke-width="1.51"/><path d="M214,212L205,232L236,226Z" fill="#237eb8" stroke="#237eb8" stroke-width="1.51"/><path d="M215,-42L192,-8L235,-19Z" fill="#9ebebe" stroke="#9ebebe" stroke-width="1.51"/><path d="M209,130L194,156L225,168Z" fill="#339fc1" stroke="#339fc1" stroke-width="1.51"/><path d="M194,156L214,212L225,168Z" fill="#2a95bf" stroke="#2a95bf" stroke-width="1.51"/><path d="M191,65L196,107L230,75Z" fill="#69b1bd" stroke="#69b1bd" stroke-width="1.51"/><path d="M194,156L171,176L214,212Z" fill="#2b9cc2" stroke="#2b9cc2" stroke-width="1.51"/><path d="M191,65L178,92L196,107Z" fill="#67b6be" stroke="#67b6be" stroke-width="1.51"/><path d="M175,21L191,65L201,16Z" fill="#8ec2bb" stroke="#8ec2bb" stroke-width="1.51"/><path d="M196,305L180,338L207,341Z" fill="#29609e" stroke="#29609e" stroke-width="1.51"/><path d="M205,232L167,267L213,275Z" fill="#2879b4" stroke="#2879b4" stroke-width="1.51"/><path d="M171,176L169,207L214,212Z" fill="#2798c1" stroke="#2798c1" stroke-width="1.51"/><path d="M176,-33L192,-8L215,-42Z" fill="#a1c8c2" stroke="#a1c8c2" stroke-width="1.51"/><path d="M169,207L205,232L214,212Z" fill="#238cbd" stroke="#238cbd" stroke-width="1.51"/><path d="M169,294L196,305L213,275Z" fill="#2e6cae" stroke="#2e6cae" stroke-width="1.51"/><path d="M167,267L169,294L213,275Z" fill="#3074b1" stroke="#3074b1" stroke-width="1.51"/><path d="M196,107L169,143L209,130Z" fill="#4aacc1" stroke="#4aacc1" stroke-width="1.51"/><path d="M169,143L194,156L209,130Z" fill="#3da9c2" stroke="#3da9c2" stroke-width="1.51"/><path d="M156,250L167,267L205,232Z" fill="#2e82b6" stroke="#2e82b6" stroke-width="1.51"/><path d="M169,207L156,250L205,232Z" fill="#2d8cbb" stroke="#2d8cbb" stroke-width="1.51"/><path d="M192,-8L175,21L201,16Z" fill="#98c5bb" stroke="#98c5bb" stroke-width="1.51"/><path d="M175,21L156,62L191,65Z" fill="#89c5bc" stroke="#89c5bc" stroke-width="1.51"/><path d="M176,-33L169,-19L192,-8Z" fill="#a2ccc0" stroke="#a2ccc0" stroke-width="1.51"/><path d="M169,294L180,338L196,305Z" fill="#3268a8" stroke="#3268a8" stroke-width="1.51"/><path d="M178,92L169,143L196,107Z" fill="#55b3c0" stroke="#55b3c0" stroke-width="1.51"/><path d="M142,119L169,143L178,92Z" fill="#56b8c1" stroke="#56b8c1" stroke-width="1.51"/><path d="M143,109L142,119L178,92Z" fill="#5ebec1" stroke="#5ebec1" stroke-width="1.51"/><path d="M169,143L171,176L194,156Z" fill="#38a9c3" stroke="#38a9c3" stroke-width="1.51"/><path d="M156,62L178,92L191,65Z" fill="#76bfbe" stroke="#76bfbe" stroke-width="1.51"/><path d="M169,-19L175,21L192,-8Z" fill="#9fcbbb" stroke="#9fcbbb" stroke-width="1.51"/><path d="M145,228L156,250L169,207Z" fill="#3494bc" stroke="#3494bc" stroke-width="1.51"/><path d="M169,-19L129,-13L175,21Z" fill="#a2d3bb" stroke="#a2d3bb" stroke-width="1.51"/><path d="M156,62L144,74L178,92Z" fill="#76c3be" stroke="#76c3be" stroke-width="1.51"/><path d="M169,294L139,306L180,338Z" fill="#396ea9" stroke="#396ea9" stroke-width="1.51"/><path d="M139,306L135,338L180,338Z" fill="#386ea1" stroke="#386ea1" stroke-width="1.51"/><path d="M145,178L169,207L171,176Z" fill="#34a5c2" stroke="#34a5c2" stroke-width="1.51"/><path d="M127,39L156,62L175,21Z" fill="#91cfbd" stroke="#91cfbd" stroke-width="1.51"/><path d="M144,74L143,109L178,92Z" fill="#69c1bf" stroke="#69c1bf" stroke-width="1.51"/><path d="M169,143L145,178L171,176Z" fill="#3aacc3" stroke="#3aacc3" stroke-width="1.51"/><path d="M145,-35L169,-19L176,-33Z" fill="#a7d3c3" stroke="#a7d3c3" stroke-width="1.51"/><path d="M129,-13L127,39L175,21Z" fill="#9ed5bb" stroke="#9ed5bb" stroke-width="1.51"/><path d="M167,267L136,272L169,294Z" fill="#397db1" stroke="#397db1" stroke-width="1.51"/><path d="M145,-35L129,-13L169,-19Z" fill="#a9d8c1" stroke="#a9d8c1" stroke-width="1.51"/><path d="M145,178L128,197L169,207Z" fill="#37a7c3" stroke="#37a7c3" stroke-width="1.51"/><path d="M128,197L145,228L169,207Z" fill="#36a0c0" stroke="#36a0c0" stroke-width="1.51"/><path d="M136,272L139,306L169,294Z" fill="#3e7baf" stroke="#3e7baf" stroke-width="1.51"/><path d="M142,119L145,178L169,143Z" fill="#43b6c4" stroke="#43b6c4" stroke-width="1.51"/><path d="M156,250L136,272L167,267Z" fill="#3885b5" stroke="#3885b5" stroke-width="1.51"/><path d="M142,119L106,121L145,178Z" fill="#57bcc2" stroke="#57bcc2" stroke-width="1.51"/><path d="M145,228L136,272L156,250Z" fill="#3b8db7" stroke="#3b8db7" stroke-width="1.51"/><path d="M127,39L144,74L156,62Z" fill="#89cdbd" stroke="#89cdbd" stroke-width="1.51"/><path d="M98,227L102,270L136,272Z" fill="#5290b3" stroke="#5290b3" stroke-width="1.51"/><path d="M108,311L135,338L139,306Z" fill="#4a75a4" stroke="#4a75a4" stroke-width="1.51"/><path d="M87,93L106,121L143,109Z" fill="#73c7be" stroke="#73c7be" stroke-width="1.51"/><path d="M127,39L93,55L144,74Z" fill="#94d2bb" stroke="#94d2bb" stroke-width="1.51"/><path d="M87,93L143,109L144,74Z" fill="#77c8bd" stroke="#77c8bd" stroke-width="1.51"/><path d="M128,197L102,215L145,228Z" fill="#49a3be" stroke="#49a3be" stroke-width="1.51"/><path d="M102,215L98,227L145,228Z" fill="#51a0bb" stroke="#51a0bb" stroke-width="1.51"/><path d="M98,227L136,272L145,228Z" fill="#4994b7" stroke="#4994b7" stroke-width="1.51"/><path d="M85,171L128,197L145,178Z" fill="#51b1c1" stroke="#51b1c1" stroke-width="1.51"/><path d="M106,121L85,171L145,178Z" fill="#5bbcc1" stroke="#5bbcc1" stroke-width="1.51"/><path d="M105,-45L129,-13L145,-35Z" fill="#b2ddc2" stroke="#b2ddc2" stroke-width="1.51"/><path d="M136,272L108,311L139,306Z" fill="#4d7dad" stroke="#4d7dad" stroke-width="1.51"/><path d="M93,55L87,93L144,74Z" fill="#8cd0bb" stroke="#8cd0bb" stroke-width="1.51"/><path d="M105,40L127,39L129,-13Z" fill="#a5d9ba" stroke="#a5d9ba" stroke-width="1.51"/><path d="M106,121L142,119L143,109Z" fill="#65c2c0" stroke="#65c2c0" stroke-width="1.51"/><path d="M105,40L93,55L127,39Z" fill="#a1d8b9" stroke="#a1d8b9" stroke-width="1.51"/><path d="M102,270L108,311L136,272Z" fill="#5384ae" stroke="#5384ae" stroke-width="1.51"/><path d="M89,-18L105,40L129,-13Z" fill="#b2deb8" stroke="#b2deb8" stroke-width="1.51"/><path d="M108,311L95,341L135,338Z" fill="#4e749d" stroke="#4e749d" stroke-width="1.51"/><path d="M85,171L102,215L128,197Z" fill="#58b0bf" stroke="#58b0bf" stroke-width="1.51"/><path d="M105,-45L89,-18L129,-13Z" fill="#b8e1be" stroke="#b8e1be" stroke-width="1.51"/><path d="M98,227L53,264L102,270Z" fill="#6697b2" stroke="#6697b2" stroke-width="1.51"/><path d="M85,171L72,196L102,215Z" fill="#67b4be" stroke="#67b4be" stroke-width="1.51"/><path d="M89,-18L59,29L105,40Z" fill="#b9e2b6" stroke="#b9e2b6" stroke-width="1.51"/><path d="M61,154L85,171L106,121Z" fill="#71c5bf" stroke="#71c5bf" stroke-width="1.51"/><path d="M55,135L61,154L106,121Z" fill="#7fcabd" stroke="#7fcabd" stroke-width="1.51"/><path d="M102,270L66,306L108,311Z" fill="#6284ab" stroke="#6284ab" stroke-width="1.51"/><path d="M66,306L95,341L108,311Z" fill="#607ca1" stroke="#607ca1" stroke-width="1.51"/><path d="M55,-6L59,29L89,-18Z" fill="#c9e9b5" stroke="#c9e9b5" stroke-width="1.51"/><path d="M59,29L69,52L105,40Z" fill="#b4e1b7" stroke="#b4e1b7" stroke-width="1.51"/><path d="M87,93L64,106L106,121Z" fill="#84cebc" stroke="#84cebc" stroke-width="1.51"/><path d="M64,106L55,135L106,121Z" fill="#86cebc" stroke="#86cebc" stroke-width="1.51"/><path d="M51,232L53,264L98,227Z" fill="#74a2b4" stroke="#74a2b4" stroke-width="1.51"/><path d="M69,52L93,55L105,40Z" fill="#a8dcb8" stroke="#a8dcb8" stroke-width="1.51"/><path d="M53,-54L89,-18L105,-45Z" fill="#c8e9c1" stroke="#c8e9c1" stroke-width="1.51"/><path d="M53,264L66,306L102,270Z" fill="#6f8fad" stroke="#6f8fad" stroke-width="1.51"/><path d="M72,196L98,227L102,215Z" fill="#61abbb" stroke="#61abbb" stroke-width="1.51"/><path d="M69,52L87,93L93,55Z" fill="#a0d9b8" stroke="#a0d9b8" stroke-width="1.51"/><path d="M66,306L66,349L95,341Z" fill="#667c99" stroke="#667c99" stroke-width="1.51"/><path d="M72,196L51,232L98,227Z" fill="#70acba" stroke="#70acba" stroke-width="1.51"/><path d="M69,52L64,106L87,93Z" fill="#9bd7b9" stroke="#9bd7b9" stroke-width="1.51"/><path d="M53,-54L55,-6L89,-18Z" fill="#d1ecbb" stroke="#d1ecbb" stroke-width="1.51"/><path d="M61,154L72,196L85,171Z" fill="#76bfbe" stroke="#76bfbe" stroke-width="1.51"/><path d="M53,264L27,274L66,306Z" fill="#8194ac" stroke="#8194ac" stroke-width="1.51"/><path d="M66,306L29,345L66,349Z" fill="#748097" stroke="#748097" stroke-width="1.51"/><path d="M36,107L64,106L69,52Z" fill="#a4dab8" stroke="#a4dab8" stroke-width="1.51"/><path d="M16,63L36,107L69,52Z" fill="#b6e1b6" stroke="#b6e1b6" stroke-width="1.51"/><path d="M26,206L51,232L72,196Z" fill="#83b5ba" stroke="#83b5ba" stroke-width="1.51"/><path d="M35,168L26,206L72,196Z" fill="#89c0bc" stroke="#89c0bc" stroke-width="1.51"/><path d="M61,154L35,168L72,196Z" fill="#83c4bd" stroke="#83c4bd" stroke-width="1.51"/><path d="M53,-54L27,-14L55,-6Z" fill="#ddf2b9" stroke="#ddf2b9" stroke-width="1.51"/><path d="M17,316L29,345L66,306Z" fill="#81869d" stroke="#81869d" stroke-width="1.51"/><path d="M59,29L16,63L69,52Z" fill="#c3e7b4" stroke="#c3e7b4" stroke-width="1.51"/><path d="M36,-55L27,-14L53,-54Z" fill="#e3f4bf" stroke="#e3f4bf" stroke-width="1.51"/><path d="M36,107L55,135L64,106Z" fill="#99d5ba" stroke="#99d5ba" stroke-width="1.51"/><path d="M27,274L17,316L66,306Z" fill="#878ea8" stroke="#878ea8" stroke-width="1.51"/><path d="M55,-6L24,23L59,29Z" fill="#d2ecb3" stroke="#d2ecb3" stroke-width="1.51"/><path d="M24,23L16,63L59,29Z" fill="#ceecb4" stroke="#ceecb4" stroke-width="1.51"/><path d="M36,107L29,123L55,135Z" fill="#9ed6ba" stroke="#9ed6ba" stroke-width="1.51"/><path d="M55,135L35,168L61,154Z" fill="#8bcdbd" stroke="#8bcdbd" stroke-width="1.51"/><path d="M-38,-33L-5,-33L36,-55Z" fill="#f1fabe" stroke="#f1fabe" stroke-width="1.51"/><path d="M26,206L25,229L51,232Z" fill="#8ab2b7" stroke="#8ab2b7" stroke-width="1.51"/><path d="M51,232L25,229L53,264Z" fill="#85a8b3" stroke="#85a8b3" stroke-width="1.51"/><path d="M25,229L27,274L53,264Z" fill="#88a1b0" stroke="#88a1b0" stroke-width="1.51"/><path d="M27,-14L24,23L55,-6Z" fill="#dbf1b3" stroke="#dbf1b3" stroke-width="1.51"/><path d="M29,123L35,168L55,135Z" fill="#95d2bc" stroke="#95d2bc" stroke-width="1.51"/><path d="M25,229L-4,273L27,274Z" fill="#8fa2af" stroke="#8fa2af" stroke-width="1.51"/><path d="M2,331L-39,345L29,345Z" fill="#898692" stroke="#898692" stroke-width="1.51"/><path d="M-19,191L26,206L35,168Z" fill="#97c5bb" stroke="#97c5bb" stroke-width="1.51"/><path d="M-19,170L-19,191L35,168Z" fill="#9eccbb" stroke="#9eccbb" stroke-width="1.51"/><path d="M29,123L-9,142L35,168Z" fill="#9dd4bc" stroke="#9dd4bc" stroke-width="1.51"/><path d="M-5,-33L27,-14L36,-55Z" fill="#e8f6bc" stroke="#e8f6bc" stroke-width="1.51"/><path d="M-16,84L29,123L36,107Z" fill="#aeddb7" stroke="#aeddb7" stroke-width="1.51"/><path d="M16,63L-16,84L36,107Z" fill="#bae3b6" stroke="#bae3b6" stroke-width="1.51"/><path d="M-13,294L17,316L27,274Z" fill="#9193a9" stroke="#9193a9" stroke-width="1.51"/><path d="M-9,142L-19,170L35,168Z" fill="#a0d1bc" stroke="#a0d1bc" stroke-width="1.51"/><path d="M-2,64L-16,84L16,63Z" fill="#c8e8b5" stroke="#c8e8b5" stroke-width="1.51"/><path d="M-9,23L-2,64L16,63Z" fill="#d4edb4" stroke="#d4edb4" stroke-width="1.51"/><path d="M-9,23L16,63L24,23Z" fill="#d7efb3" stroke="#d7efb3" stroke-width="1.51"/><path d="M-19,230L-4,273L25,229Z" fill="#96acb2" stroke="#96acb2" stroke-width="1.51"/><path d="M-9,23L24,23L27,-14Z" fill="#dff2b2" stroke="#dff2b2" stroke-width="1.51"/><path d="M-20,-4L-9,23L27,-14Z" fill="#e7f5b2" stroke="#e7f5b2" stroke-width="1.51"/><path d="M-4,273L-13,294L27,274Z" fill="#949bab" stroke="#949bab" stroke-width="1.51"/><path d="M17,316L2,331L29,345Z" fill="#858798" stroke="#858798" stroke-width="1.51"/><path d="M-16,84L-9,142L29,123Z" fill="#afddb9" stroke="#afddb9" stroke-width="1.51"/><path d="M-19,230L25,229L26,206Z" fill="#94b6b7" stroke="#94b6b7" stroke-width="1.51"/><path d="M-5,-33L-20,-4L27,-14Z" fill="#ecf8b4" stroke="#ecf8b4" stroke-width="1.51"/><path d="M-19,191L-19,230L26,206Z" fill="#9bbfb9" stroke="#9bbfb9" stroke-width="1.51"/><path d="M-16,84L-32,97L-9,142Z" fill="#b8e1bc" stroke="#b8e1bc" stroke-width="1.51"/><path d="M-13,294L2,331L17,316Z" fill="#918da3" stroke="#918da3" stroke-width="1.51"/><path d="M-32,97L-33,142L-9,142Z" fill="#b1ddc0" stroke="#b1ddc0" stroke-width="1.51"/><path d="M-19,230L-31,273L-4,273Z" fill="#9aa6b3" stroke="#9aa6b3" stroke-width="1.51"/><path d="M-9,23L-34,61L-2,64Z" fill="#d9f0b6" stroke="#d9f0b6" stroke-width="1.51"/><path d="M-13,294L-42,303L2,331Z" fill="#9890a9" stroke="#9890a9" stroke-width="1.51"/><path d="M-42,303L-39,345L2,331Z" fill="#928ca1" stroke="#928ca1" stroke-width="1.51"/><path d="M-30,231L-31,273L-19,230Z" fill="#9caeb9" stroke="#9caeb9" stroke-width="1.51"/><path d="M-30,-7L-20,-4L-5,-33Z" fill="#f1f9b8" stroke="#f1f9b8" stroke-width="1.51"/><path d="M-34,61L-16,84L-2,64Z" fill="#ccebb8" stroke="#ccebb8" stroke-width="1.51"/><path d="M-45,22L-34,61L-9,23Z" fill="#e2f4ba" stroke="#e2f4ba" stroke-width="1.51"/><path d="M-38,-33L-30,-7L-5,-33Z" fill="#f3fabe" stroke="#f3fabe" stroke-width="1.51"/><path d="M-31,273L-13,294L-4,273Z" fill="#999cad" stroke="#999cad" stroke-width="1.51"/><path d="M-33,142L-19,170L-9,142Z" fill="#a7d7c0" stroke="#a7d7c0" stroke-width="1.51"/><path d="M-30,231L-19,230L-19,191Z" fill="#9dbcbd" stroke="#9dbcbd" stroke-width="1.51"/><path d="M-31,189L-30,231L-19,191Z" fill="#9fc4c1" stroke="#9fc4c1" stroke-width="1.51"/><path d="M-20,-4L-45,22L-9,23Z" fill="#e9f6b8" stroke="#e9f6b8" stroke-width="1.51"/><path d="M-30,-7L-45,22L-20,-4Z" fill="#edf8ba" stroke="#edf8ba" stroke-width="1.51"/><path d="M-33,142L-40,161L-19,170Z" fill="#a7d5c4" stroke="#a7d5c4" stroke-width="1.51"/><path d="M-19,170L-31,189L-19,191Z" fill="#a2cbc1" stroke="#a2cbc1" stroke-width="1.51"/><path d="M-31,273L-42,303L-13,294Z" fill="#9a99b1" stroke="#9a99b1" stroke-width="1.51"/><path d="M-34,61L-32,97L-16,84Z" fill="#c8e9bd" stroke="#c8e9bd" stroke-width="1.51"/><path d="M-40,161L-31,189L-19,170Z" fill="#a5cfc3" stroke="#a5cfc3" stroke-width="1.51"/><path d="M-40,161L-33,142L-32,97Z" fill="#b0dcc4" stroke="#b0dcc4" stroke-width="1.51"/><path d="M-42,303L-31,273L-30,231Z" fill="#9ba3b6" stroke="#9ba3b6" stroke-width="1.51"/><path d="M-31,189L-40,161L-30,231Z" fill="#a2c8c4" stroke="#a2c8c4" stroke-width="1.51"/><path d="M-40,161L-42,303L-30,231Z" fill="#9eb5bf" stroke="#9eb5bf" stroke-width="1.51"/><path d="M-38,-33L-45,22L-30,-7Z" fill="#f2fabd" stroke="#f2fabd" stroke-width="1.51"/><path d="M-34,61L-45,22L-32,97Z" fill="#d6efbe" stroke="#d6efbe" stroke-width="1.51"/><path d="M-45,22L-40,161L-32,97Z" fill="#c1e6c2" stroke="#c1e6c2" stroke-width="1.51"/><path d="M-45,22L-42,303L-40,161Z" fill="#a8d4c8" stroke="#a8d4c8" stroke-width="1.51"/></svg>